<svg xmlns="http://www.w3.org/2000/svg" viewBox="0 0 1440 900" role="img" aria-label="Collection screen background"><defs><linearGradient id="cl-grad" x1="0" y1="0" x2="0" y2="1"><stop offset="0%" stop-color="#1d1530"/><stop offset="100%" stop-color="#0a0814"/></linearGradient></defs><rect width="1440" height="900" fill="url(#cl-grad)"/><g fill="#241a3d"><rect x="60" y="120" width="80" height="780"/><rect x="160" y="180" width="80" height="720"/><rect x="260" y="100" width="80" height="800"/><rect x="1100" y="140" width="80" height="760"/><rect x="1200" y="200" width="80" height="700"/><rect x="1300" y="120" width="80" height="780"/></g><g fill="rgba(251,191,36,0.18)"><rect x="60" y="320" width="80" height="6"/><rect x="60" y="540" width="80" height="6"/><rect x="160" y="380" width="80" height="6"/><rect x="260" y="280" width="80" height="6"/><rect x="1100" y="360" width="80" height="6"/><rect x="1200" y="420" width="80" height="6"/><rect x="1300" y="320" width="80" height="6"/></g><g opacity="0.4"><circle cx="500" cy="280" r="2" fill="#fbbf24"/><circle cx="700" cy="200" r="3" fill="#fbbf24"/><circle cx="900" cy="280" r="2" fill="#fbbf24"/></g></svg>
