<svg xmlns="http://www.w3.org/2000/svg" viewBox="0 0 1440 900" role="img" aria-label="Main menu background"><defs><linearGradient id="mm-grad" x1="0" y1="0" x2="0" y2="1"><stop offset="0%" stop-color="#0a0f24"/><stop offset="60%" stop-color="#1a1240"/><stop offset="100%" stop-color="#070914"/></linearGradient></defs><rect width="1440" height="900" fill="url(#mm-grad)"/><g opacity="0.55"><path d="M0 700 L240 540 L480 640 L720 480 L960 600 L1200 500 L1440 660 L1440 900 L0 900 Z" fill="#181530"/><path d="M0 780 L300 660 L600 760 L900 640 L1200 740 L1440 680 L1440 900 L0 900 Z" fill="#0d0d24"/></g><g opacity="0.4"><circle cx="220" cy="180" r="3" fill="#7c3aed"/><circle cx="640" cy="120" r="2" fill="#38bdf8"/><circle cx="1040" cy="220" r="3" fill="#fbbf24"/><circle cx="1290" cy="140" r="2" fill="#a78bfa"/><circle cx="380" cy="260" r="2" fill="#fff"/><circle cx="860" cy="320" r="3" fill="#7c3aed"/></g><path d="M120 80 Q720 0 1320 80 Q720 30 120 80 Z" fill="rgba(124,58,237,0.18)"/></svg>
