<svg xmlns="http://www.w3.org/2000/svg" viewBox="0 0 200 200" role="img" aria-label="Hero portrait edge cracks flash"><g fill="none" stroke="#fef2f2" stroke-width="3" stroke-linecap="round" stroke-linejoin="round" opacity="0.85"><path d="M22 18 L46 56 L34 84 L62 110 L48 138 L78 158"/><path d="M178 22 L150 60 L166 84 L138 116 L154 144 L122 162"/><path d="M100 8 L96 38 L112 62 L92 92"/><path d="M14 102 L42 116 L26 142"/><path d="M186 108 L160 122 L172 150"/></g><g fill="rgba(220,38,38,0.55)" stroke="#fee2e2" stroke-width="1.5"><polygon points="46,56 52,52 50,62"/><polygon points="150,60 144,55 146,66"/><polygon points="92,92 98,86 102,98"/></g></svg>
