<svg xmlns="http://www.w3.org/2000/svg" viewBox="0 0 400 400" role="img" aria-label="Pack opening golden burst"><defs><radialGradient id="pbCore" cx="50%" cy="50%" r="50%"><stop offset="0%" stop-color="rgba(255,251,214,1)"/><stop offset="35%" stop-color="rgba(254,230,138,0.85)"/><stop offset="70%" stop-color="rgba(217,119,6,0.35)"/><stop offset="100%" stop-color="rgba(120,53,15,0)"/></radialGradient><linearGradient id="pbRay" x1="0" y1="0" x2="0" y2="1"><stop offset="0%" stop-color="rgba(255,251,214,0.95)"/><stop offset="100%" stop-color="rgba(254,230,138,0)"/></linearGradient></defs><circle cx="200" cy="200" r="200" fill="url(#pbCore)"/><g fill="url(#pbRay)" transform="translate(200 200)"><polygon points="-12,-200 12,-200 0,-40"/><polygon points="-12,200 12,200 0,40" transform="rotate(180)"/><polygon points="-12,-200 12,-200 0,-40" transform="rotate(45)"/><polygon points="-12,-200 12,-200 0,-40" transform="rotate(90)"/><polygon points="-12,-200 12,-200 0,-40" transform="rotate(135)"/><polygon points="-12,-200 12,-200 0,-40" transform="rotate(225)"/><polygon points="-12,-200 12,-200 0,-40" transform="rotate(270)"/><polygon points="-12,-200 12,-200 0,-40" transform="rotate(315)"/><polygon points="-6,-180 6,-180 0,-30" transform="rotate(22.5)" opacity="0.65"/><polygon points="-6,-180 6,-180 0,-30" transform="rotate(67.5)" opacity="0.65"/><polygon points="-6,-180 6,-180 0,-30" transform="rotate(112.5)" opacity="0.65"/><polygon points="-6,-180 6,-180 0,-30" transform="rotate(157.5)" opacity="0.65"/><polygon points="-6,-180 6,-180 0,-30" transform="rotate(202.5)" opacity="0.65"/><polygon points="-6,-180 6,-180 0,-30" transform="rotate(247.5)" opacity="0.65"/><polygon points="-6,-180 6,-180 0,-30" transform="rotate(292.5)" opacity="0.65"/><polygon points="-6,-180 6,-180 0,-30" transform="rotate(337.5)" opacity="0.65"/></g></svg>
