<svg xmlns="http://www.w3.org/2000/svg" viewBox="0 0 240 320" role="img" aria-label="Settings tile"><defs><linearGradient id="tile-grad" x1="0" y1="0" x2="0" y2="1"><stop offset="0%" stop-color="#2a2a35"/><stop offset="100%" stop-color="#10101a"/></linearGradient></defs><rect width="240" height="320" rx="20" fill="#181230"/><rect x="8" y="8" width="224" height="304" rx="14" fill="url(#tile-grad)" stroke="#94a3b8" stroke-width="2"/><g transform="translate(120,160)"><circle r="60" fill="none" stroke="#94a3b8" stroke-width="6"/><circle r="20" fill="#fbbf24"/><g fill="#94a3b8"><rect x="-8" y="-78" width="16" height="20" rx="3"/><rect x="-8" y="58" width="16" height="20" rx="3"/><rect x="-78" y="-8" width="20" height="16" rx="3" /><rect x="58" y="-8" width="20" height="16" rx="3"/><rect x="-58" y="-58" width="16" height="20" rx="3" transform="rotate(-45)"/><rect x="42" y="-58" width="16" height="20" rx="3" transform="rotate(45)"/><rect x="-58" y="42" width="20" height="16" rx="3" transform="rotate(45)"/><rect x="42" y="42" width="16" height="20" rx="3" transform="rotate(-45)"/></g></g></svg>
