<svg xmlns="http://www.w3.org/2000/svg" viewBox="0 0 340 220" role="img" aria-label="Abyssal Tyrant illustration">
  <defs>
    <linearGradient id="sky-abyssal-tyrant" x1="0" y1="0" x2="1" y2="1">
      <stop offset="0%" stop-color="#0a1226"/>
      <stop offset="100%" stop-color="#475569" stop-opacity="0.75"/>
    </linearGradient>
    <linearGradient id="ground-abyssal-tyrant" x1="0" y1="0" x2="1" y2="0">
      <stop offset="0%" stop-color="#64748b" stop-opacity="0.22"/>
      <stop offset="100%" stop-color="#0b1020" stop-opacity="0.12"/>
    </linearGradient>
  </defs>
  <rect width="340" height="220" rx="28" fill="url(#sky-abyssal-tyrant)"/>
  <rect x="10" y="10" width="320" height="200" rx="22" fill="none" stroke="rgba(168,85,247,.6)"/>
  <circle cx="40" cy="28" r="2.4" fill="rgba(255,255,255,.18)"/><circle cx="76" cy="46" r="2.4" fill="rgba(255,255,255,.18)"/><circle cx="112" cy="64" r="2.4" fill="rgba(255,255,255,.18)"/><circle cx="148" cy="28" r="2.4" fill="rgba(255,255,255,.18)"/><circle cx="184" cy="46" r="2.4" fill="rgba(255,255,255,.18)"/><circle cx="220" cy="64" r="2.4" fill="rgba(255,255,255,.18)"/><circle cx="256" cy="28" r="2.4" fill="rgba(255,255,255,.18)"/>
  <path d="M0 182 C54 154 102 162 170 176 C232 188 280 182 340 154 V220 H0 Z" fill="url(#ground-abyssal-tyrant)"/>
  
    <path d="M170 66 L226 96 V158 C226 188 198 204 170 214 C142 204 114 188 114 158 V96 Z" fill="#475569"/>
    <path d="M170 92 L188 114 L212 118 L188 126 L170 154 L152 126 L128 118 L152 114 Z" fill="#64748b" opacity=".6"/>
</svg>
