<svg xmlns="http://www.w3.org/2000/svg" viewBox="0 0 340 220" role="img" aria-label="Aegis Knight illustration">
  <defs>
    <linearGradient id="sky-aegis-knight" x1="0" y1="0" x2="1" y2="1">
      <stop offset="0%" stop-color="#0a1226"/>
      <stop offset="100%" stop-color="#fbbf24" stop-opacity="0.75"/>
    </linearGradient>
    <linearGradient id="ground-aegis-knight" x1="0" y1="0" x2="1" y2="0">
      <stop offset="0%" stop-color="#3b82f6" stop-opacity="0.22"/>
      <stop offset="100%" stop-color="#0b1020" stop-opacity="0.12"/>
    </linearGradient>
  </defs>
  <rect width="340" height="220" rx="28" fill="url(#sky-aegis-knight)"/>
  <rect x="10" y="10" width="320" height="200" rx="22" fill="none" stroke="rgba(251,191,36,.45)"/>
  <circle cx="40" cy="28" r="2.4" fill="rgba(255,255,255,.18)"/><circle cx="76" cy="46" r="2.4" fill="rgba(255,255,255,.18)"/><circle cx="112" cy="64" r="2.4" fill="rgba(255,255,255,.18)"/><circle cx="148" cy="28" r="2.4" fill="rgba(255,255,255,.18)"/><circle cx="184" cy="46" r="2.4" fill="rgba(255,255,255,.18)"/><circle cx="220" cy="64" r="2.4" fill="rgba(255,255,255,.18)"/><circle cx="256" cy="28" r="2.4" fill="rgba(255,255,255,.18)"/>
  <path d="M0 182 C54 154 102 162 170 176 C232 188 280 182 340 154 V220 H0 Z" fill="url(#ground-aegis-knight)"/>
  
      <path d="M170 64 L226 94 V154 C226 192 200 210 170 222 C140 210 114 192 114 154 V94 Z" fill="#1e3a5f"/>
      <path d="M170 84 L202 102 V142 C202 168 188 182 170 190 C152 182 138 168 138 142 V102 Z" fill="#2563eb"/>
      <path d="M170 110 L180 130 L200 134 L180 138 L170 158 L160 138 L140 134 L160 130 Z" fill="#fde68a"/>
    
</svg>
