<svg xmlns="http://www.w3.org/2000/svg" viewBox="0 0 340 220" role="img" aria-label="Aethon, Skyforger illustration">
  <defs>
    <linearGradient id="sky-aethon" x1="0" y1="0" x2="1" y2="1">
      <stop offset="0%" stop-color="#0a1226"/>
      <stop offset="100%" stop-color="#fbbf24" stop-opacity="0.75"/>
    </linearGradient>
    <linearGradient id="ground-aethon" x1="0" y1="0" x2="1" y2="0">
      <stop offset="0%" stop-color="#60a5fa" stop-opacity="0.22"/>
      <stop offset="100%" stop-color="#0b1020" stop-opacity="0.12"/>
    </linearGradient>
  </defs>
  <rect width="340" height="220" rx="28" fill="url(#sky-aethon)"/>
  <rect x="10" y="10" width="320" height="200" rx="22" fill="none" stroke="rgba(245,158,11,.7)"/>
  <circle cx="40" cy="28" r="2.4" fill="rgba(255,255,255,.18)"/><circle cx="76" cy="46" r="2.4" fill="rgba(255,255,255,.18)"/><circle cx="112" cy="64" r="2.4" fill="rgba(255,255,255,.18)"/><circle cx="148" cy="28" r="2.4" fill="rgba(255,255,255,.18)"/><circle cx="184" cy="46" r="2.4" fill="rgba(255,255,255,.18)"/><circle cx="220" cy="64" r="2.4" fill="rgba(255,255,255,.18)"/><circle cx="256" cy="28" r="2.4" fill="rgba(255,255,255,.18)"/>
  <path d="M0 182 C54 154 102 162 170 176 C232 188 280 182 340 154 V220 H0 Z" fill="url(#ground-aethon)"/>
  
    <circle cx="170" cy="117" r="39" fill="#60a5fa" opacity=".35"/>
    <circle cx="170" cy="117" r="25" fill="#fbbf24" opacity=".7"/>
    <path d="M170 73 V59 M137 89 L129 83 M203 89 L211 83" stroke="#60a5fa" stroke-width="5" stroke-linecap="round" fill="none"/>
    <path d="M90 194 C130 159 210 159 250 194" fill="#fbbf24" opacity=".3"/>
</svg>
