<svg xmlns="http://www.w3.org/2000/svg" viewBox="0 0 340 220" role="img" aria-label="Blaze Runner illustration">
  <defs>
    <linearGradient id="sky-blaze-runner" x1="0" y1="0" x2="1" y2="1">
      <stop offset="0%" stop-color="#0a1226"/>
      <stop offset="100%" stop-color="#ef4444" stop-opacity="0.75"/>
    </linearGradient>
    <linearGradient id="ground-blaze-runner" x1="0" y1="0" x2="1" y2="0">
      <stop offset="0%" stop-color="#f97316" stop-opacity="0.22"/>
      <stop offset="100%" stop-color="#0b1020" stop-opacity="0.12"/>
    </linearGradient>
  </defs>
  <rect width="340" height="220" rx="28" fill="url(#sky-blaze-runner)"/>
  <rect x="10" y="10" width="320" height="200" rx="22" fill="none" stroke="rgba(251,191,36,.45)"/>
  <circle cx="40" cy="28" r="2.4" fill="rgba(255,255,255,.18)"/><circle cx="76" cy="46" r="2.4" fill="rgba(255,255,255,.18)"/><circle cx="112" cy="64" r="2.4" fill="rgba(255,255,255,.18)"/><circle cx="148" cy="28" r="2.4" fill="rgba(255,255,255,.18)"/><circle cx="184" cy="46" r="2.4" fill="rgba(255,255,255,.18)"/><circle cx="220" cy="64" r="2.4" fill="rgba(255,255,255,.18)"/><circle cx="256" cy="28" r="2.4" fill="rgba(255,255,255,.18)"/>
  <path d="M0 182 C54 154 102 162 170 176 C232 188 280 182 340 154 V220 H0 Z" fill="url(#ground-blaze-runner)"/>
  
      <path d="M220 168 C200 132 184 128 170 128 C156 128 140 136 120 156" fill="none" stroke="#fb923c" stroke-width="12" stroke-linecap="round"/>
      <circle cx="170" cy="124" r="18" fill="#f97316"/>
      <path d="M200 128 C218 114 230 126 226 148" fill="none" stroke="#fbbf24" stroke-width="6" stroke-linecap="round"/>
      <path d="M136 148 C120 138 108 142 110 162" fill="none" stroke="#fb923c" stroke-width="5" stroke-linecap="round" opacity=".6"/>
    
</svg>
