<svg xmlns="http://www.w3.org/2000/svg" viewBox="0 0 340 220" role="img" aria-label="Blood Mage illustration">
  <defs>
    <linearGradient id="sky-blood-mage" x1="0" y1="0" x2="1" y2="1">
      <stop offset="0%" stop-color="#0a1226"/>
      <stop offset="100%" stop-color="#7f1d1d" stop-opacity="0.75"/>
    </linearGradient>
    <linearGradient id="ground-blood-mage" x1="0" y1="0" x2="1" y2="0">
      <stop offset="0%" stop-color="#dc2626" stop-opacity="0.22"/>
      <stop offset="100%" stop-color="#0b1020" stop-opacity="0.12"/>
    </linearGradient>
  </defs>
  <rect width="340" height="220" rx="28" fill="url(#sky-blood-mage)"/>
  <rect x="10" y="10" width="320" height="200" rx="22" fill="none" stroke="rgba(59,130,246,.55)"/>
  <circle cx="40" cy="28" r="2.4" fill="rgba(255,255,255,.18)"/><circle cx="76" cy="46" r="2.4" fill="rgba(255,255,255,.18)"/><circle cx="112" cy="64" r="2.4" fill="rgba(255,255,255,.18)"/><circle cx="148" cy="28" r="2.4" fill="rgba(255,255,255,.18)"/><circle cx="184" cy="46" r="2.4" fill="rgba(255,255,255,.18)"/><circle cx="220" cy="64" r="2.4" fill="rgba(255,255,255,.18)"/><circle cx="256" cy="28" r="2.4" fill="rgba(255,255,255,.18)"/>
  <path d="M0 182 C54 154 102 162 170 176 C232 188 280 182 340 154 V220 H0 Z" fill="url(#ground-blood-mage)"/>
  
    <circle cx="170" cy="115" r="39" fill="#7f1d1d" opacity=".4"/>
    <path d="M170 79 C211 89 221 117 209 141 C203 169 189 175 170 181" fill="none" stroke="#dc2626" stroke-width="9" stroke-linecap="round"/>
    <path d="M170 181 C151 175 137 169 131 141 C119 117 129 89 170 79" fill="none" stroke="#dc2626" stroke-width="6" stroke-linecap="round" opacity=".5"/>
</svg>
