<svg xmlns="http://www.w3.org/2000/svg" viewBox="0 0 340 220" role="img" aria-label="Bone Collector illustration">
  <defs>
    <linearGradient id="sky-bone-collector" x1="0" y1="0" x2="1" y2="1">
      <stop offset="0%" stop-color="#0a1226"/>
      <stop offset="100%" stop-color="#71717a" stop-opacity="0.75"/>
    </linearGradient>
    <linearGradient id="ground-bone-collector" x1="0" y1="0" x2="1" y2="0">
      <stop offset="0%" stop-color="#d4d4d8" stop-opacity="0.22"/>
      <stop offset="100%" stop-color="#0b1020" stop-opacity="0.12"/>
    </linearGradient>
  </defs>
  <rect width="340" height="220" rx="28" fill="url(#sky-bone-collector)"/>
  <rect x="10" y="10" width="320" height="200" rx="22" fill="none" stroke="rgba(59,130,246,.55)"/>
  <circle cx="40" cy="28" r="2.4" fill="rgba(255,255,255,.18)"/><circle cx="76" cy="46" r="2.4" fill="rgba(255,255,255,.18)"/><circle cx="112" cy="64" r="2.4" fill="rgba(255,255,255,.18)"/><circle cx="148" cy="28" r="2.4" fill="rgba(255,255,255,.18)"/><circle cx="184" cy="46" r="2.4" fill="rgba(255,255,255,.18)"/><circle cx="220" cy="64" r="2.4" fill="rgba(255,255,255,.18)"/><circle cx="256" cy="28" r="2.4" fill="rgba(255,255,255,.18)"/>
  <path d="M0 182 C54 154 102 162 170 176 C232 188 280 182 340 154 V220 H0 Z" fill="url(#ground-bone-collector)"/>
  
    <path d="M170 66 L216 98 V148 C216 188 200 204 170 214 C140 204 124 188 124 148 V98 Z" fill="#71717a"/>
    <path d="M170 82 L188 116 L214 118 L188 128 L170 154 L152 128 L126 118 L152 116 Z" fill="#d4d4d8" opacity=".6"/>
</svg>
