<svg xmlns="http://www.w3.org/2000/svg" viewBox="0 0 340 220" role="img" aria-label="Bone Knight illustration">
  <defs>
    <linearGradient id="sky-bone-knight" x1="0" y1="0" x2="1" y2="1">
      <stop offset="0%" stop-color="#0a1226"/>
      <stop offset="100%" stop-color="#71717a" stop-opacity="0.75"/>
    </linearGradient>
    <linearGradient id="ground-bone-knight" x1="0" y1="0" x2="1" y2="0">
      <stop offset="0%" stop-color="#d4d4d8" stop-opacity="0.22"/>
      <stop offset="100%" stop-color="#0b1020" stop-opacity="0.12"/>
    </linearGradient>
  </defs>
  <rect width="340" height="220" rx="28" fill="url(#sky-bone-knight)"/>
  <rect x="10" y="10" width="320" height="200" rx="22" fill="none" stroke="rgba(59,130,246,.55)"/>
  <circle cx="40" cy="28" r="2.4" fill="rgba(255,255,255,.18)"/><circle cx="76" cy="46" r="2.4" fill="rgba(255,255,255,.18)"/><circle cx="112" cy="64" r="2.4" fill="rgba(255,255,255,.18)"/><circle cx="148" cy="28" r="2.4" fill="rgba(255,255,255,.18)"/><circle cx="184" cy="46" r="2.4" fill="rgba(255,255,255,.18)"/><circle cx="220" cy="64" r="2.4" fill="rgba(255,255,255,.18)"/><circle cx="256" cy="28" r="2.4" fill="rgba(255,255,255,.18)"/>
  <path d="M0 182 C54 154 102 162 170 176 C232 188 280 182 340 154 V220 H0 Z" fill="url(#ground-bone-knight)"/>
  
    <path d="M98 162 C134 130 150 128 170 128 C190 128 206 130 242 162 C210 162 202 164 170 176 C138 164 130 162 98 162 Z" fill="#71717a" opacity=".75"/>
    <circle cx="170" cy="114" r="20" fill="#d4d4d8"/>
    <path d="M96 158 L66 114 M244 158 L274 114" stroke="#d4d4d8" stroke-width="5" stroke-linecap="round" fill="none"/>
</svg>
