<svg xmlns="http://www.w3.org/2000/svg" viewBox="0 0 340 220" role="img" aria-label="Celestial Archer illustration">
  <defs>
    <linearGradient id="sky-celestial-archer" x1="0" y1="0" x2="1" y2="1">
      <stop offset="0%" stop-color="#0a1226"/>
      <stop offset="100%" stop-color="#818cf8" stop-opacity="0.75"/>
    </linearGradient>
    <linearGradient id="ground-celestial-archer" x1="0" y1="0" x2="1" y2="0">
      <stop offset="0%" stop-color="#fde68a" stop-opacity="0.22"/>
      <stop offset="100%" stop-color="#0b1020" stop-opacity="0.12"/>
    </linearGradient>
  </defs>
  <rect width="340" height="220" rx="28" fill="url(#sky-celestial-archer)"/>
  <rect x="10" y="10" width="320" height="200" rx="22" fill="none" stroke="rgba(168,85,247,.6)"/>
  <circle cx="40" cy="28" r="2.4" fill="rgba(255,255,255,.18)"/><circle cx="76" cy="46" r="2.4" fill="rgba(255,255,255,.18)"/><circle cx="112" cy="64" r="2.4" fill="rgba(255,255,255,.18)"/><circle cx="148" cy="28" r="2.4" fill="rgba(255,255,255,.18)"/><circle cx="184" cy="46" r="2.4" fill="rgba(255,255,255,.18)"/><circle cx="220" cy="64" r="2.4" fill="rgba(255,255,255,.18)"/><circle cx="256" cy="28" r="2.4" fill="rgba(255,255,255,.18)"/>
  <path d="M0 182 C54 154 102 162 170 176 C232 188 280 182 340 154 V220 H0 Z" fill="url(#ground-celestial-archer)"/>
  
    <path d="M170 70 L224 96 V156 C224 188 198 200 170 210 C142 200 116 188 116 156 V96 Z" fill="#818cf8"/>
    <path d="M170 90 L184 114 L212 114 L184 126 L170 154 L156 126 L128 114 L156 114 Z" fill="#fde68a" opacity=".6"/>
</svg>
