<svg xmlns="http://www.w3.org/2000/svg" viewBox="0 0 340 220" role="img" aria-label="Clay Soldier illustration">
  <defs>
    <linearGradient id="sky-clay-soldier" x1="0" y1="0" x2="1" y2="1">
      <stop offset="0%" stop-color="#0a1226"/>
      <stop offset="100%" stop-color="#92400e" stop-opacity="0.75"/>
    </linearGradient>
    <linearGradient id="ground-clay-soldier" x1="0" y1="0" x2="1" y2="0">
      <stop offset="0%" stop-color="#a16207" stop-opacity="0.22"/>
      <stop offset="100%" stop-color="#0b1020" stop-opacity="0.12"/>
    </linearGradient>
  </defs>
  <rect width="340" height="220" rx="28" fill="url(#sky-clay-soldier)"/>
  <rect x="10" y="10" width="320" height="200" rx="22" fill="none" stroke="rgba(156,163,175,.45)"/>
  <circle cx="40" cy="28" r="2.4" fill="rgba(255,255,255,.18)"/><circle cx="76" cy="46" r="2.4" fill="rgba(255,255,255,.18)"/><circle cx="112" cy="64" r="2.4" fill="rgba(255,255,255,.18)"/><circle cx="148" cy="28" r="2.4" fill="rgba(255,255,255,.18)"/><circle cx="184" cy="46" r="2.4" fill="rgba(255,255,255,.18)"/><circle cx="220" cy="64" r="2.4" fill="rgba(255,255,255,.18)"/><circle cx="256" cy="28" r="2.4" fill="rgba(255,255,255,.18)"/>
  <path d="M0 182 C54 154 102 162 170 176 C232 188 280 182 340 154 V220 H0 Z" fill="url(#ground-clay-soldier)"/>
  
    <circle cx="170" cy="90" r="26" fill="#a16207" opacity=".8"/>
    <path d="M120 196 C120 150 156 110 170 110 C184 110 220 150 220 196 Z" fill="#92400e"/>
    <circle cx="155" cy="86" r="4" fill="#fff"/>
    <circle cx="179" cy="86" r="4" fill="#fff"/>
</svg>
