<svg xmlns="http://www.w3.org/2000/svg" viewBox="0 0 340 220" role="img" aria-label="Crimson Witch illustration">
  <defs>
    <linearGradient id="sky-crimson-witch" x1="0" y1="0" x2="1" y2="1">
      <stop offset="0%" stop-color="#0a1226"/>
      <stop offset="100%" stop-color="#a855f7" stop-opacity="0.75"/>
    </linearGradient>
    <linearGradient id="ground-crimson-witch" x1="0" y1="0" x2="1" y2="0">
      <stop offset="0%" stop-color="#dc2626" stop-opacity="0.22"/>
      <stop offset="100%" stop-color="#0b1020" stop-opacity="0.12"/>
    </linearGradient>
  </defs>
  <rect width="340" height="220" rx="28" fill="url(#sky-crimson-witch)"/>
  <rect x="10" y="10" width="320" height="200" rx="22" fill="none" stroke="rgba(168,85,247,.6)"/>
  <circle cx="40" cy="28" r="2.4" fill="rgba(255,255,255,.18)"/><circle cx="76" cy="46" r="2.4" fill="rgba(255,255,255,.18)"/><circle cx="112" cy="64" r="2.4" fill="rgba(255,255,255,.18)"/><circle cx="148" cy="28" r="2.4" fill="rgba(255,255,255,.18)"/><circle cx="184" cy="46" r="2.4" fill="rgba(255,255,255,.18)"/><circle cx="220" cy="64" r="2.4" fill="rgba(255,255,255,.18)"/><circle cx="256" cy="28" r="2.4" fill="rgba(255,255,255,.18)"/>
  <path d="M0 182 C54 154 102 162 170 176 C232 188 280 182 340 154 V220 H0 Z" fill="url(#ground-crimson-witch)"/>
  
    <path d="M109 186 C133 151 151 127 170 127 C189 127 207 151 231 186 Z" fill="#a855f7"/>
    <circle cx="170" cy="107" r="21" fill="#dc2626"/>
    <path d="231 186 C245 177 255 181 259 167" fill="none" stroke="#dc2626" stroke-width="5" stroke-linecap="round"/>
    <circle cx="163" cy="103" r="3" fill="#fff"/>
    <circle cx="177" cy="103" r="3" fill="#fff"/>
</svg>
