<svg xmlns="http://www.w3.org/2000/svg" viewBox="0 0 340 220" role="img" aria-label="Crystal Shard illustration">
  <defs>
    <linearGradient id="sky-crystal-shard" x1="0" y1="0" x2="1" y2="1">
      <stop offset="0%" stop-color="#0a1226"/>
      <stop offset="100%" stop-color="#7c3aed" stop-opacity="0.75"/>
    </linearGradient>
    <linearGradient id="ground-crystal-shard" x1="0" y1="0" x2="1" y2="0">
      <stop offset="0%" stop-color="#a78bfa" stop-opacity="0.22"/>
      <stop offset="100%" stop-color="#0b1020" stop-opacity="0.12"/>
    </linearGradient>
  </defs>
  <rect width="340" height="220" rx="28" fill="url(#sky-crystal-shard)"/>
  <rect x="10" y="10" width="320" height="200" rx="22" fill="none" stroke="rgba(156,163,175,.45)"/>
  <circle cx="40" cy="28" r="2.4" fill="rgba(255,255,255,.18)"/><circle cx="76" cy="46" r="2.4" fill="rgba(255,255,255,.18)"/><circle cx="112" cy="64" r="2.4" fill="rgba(255,255,255,.18)"/><circle cx="148" cy="28" r="2.4" fill="rgba(255,255,255,.18)"/><circle cx="184" cy="46" r="2.4" fill="rgba(255,255,255,.18)"/><circle cx="220" cy="64" r="2.4" fill="rgba(255,255,255,.18)"/><circle cx="256" cy="28" r="2.4" fill="rgba(255,255,255,.18)"/>
  <path d="M0 182 C54 154 102 162 170 176 C232 188 280 182 340 154 V220 H0 Z" fill="url(#ground-crystal-shard)"/>
  
    <circle cx="170" cy="121" r="37" fill="#7c3aed" opacity=".4"/>
    <path d="M170 77 C205 87 219 115 207 139 C203 167 187 173 170 179" fill="none" stroke="#a78bfa" stroke-width="7" stroke-linecap="round"/>
    <path d="M170 179 C153 173 137 167 133 139 C121 115 135 87 170 77" fill="none" stroke="#a78bfa" stroke-width="6" stroke-linecap="round" opacity=".5"/>
</svg>
