<svg xmlns="http://www.w3.org/2000/svg" viewBox="0 0 340 220" role="img" aria-label="Crystal Oracle illustration">
  <defs>
    <linearGradient id="sky-crystal-oracle" x1="0" y1="0" x2="1" y2="1">
      <stop offset="0%" stop-color="#0a1226"/>
      <stop offset="100%" stop-color="#7c3aed" stop-opacity="0.75"/>
    </linearGradient>
    <linearGradient id="ground-crystal-oracle" x1="0" y1="0" x2="1" y2="0">
      <stop offset="0%" stop-color="#a78bfa" stop-opacity="0.22"/>
      <stop offset="100%" stop-color="#0b1020" stop-opacity="0.12"/>
    </linearGradient>
  </defs>
  <rect width="340" height="220" rx="28" fill="url(#sky-crystal-oracle)"/>
  <rect x="10" y="10" width="320" height="200" rx="22" fill="none" stroke="rgba(168,85,247,.6)"/>
  <circle cx="40" cy="28" r="2.4" fill="rgba(255,255,255,.18)"/><circle cx="76" cy="46" r="2.4" fill="rgba(255,255,255,.18)"/><circle cx="112" cy="64" r="2.4" fill="rgba(255,255,255,.18)"/><circle cx="148" cy="28" r="2.4" fill="rgba(255,255,255,.18)"/><circle cx="184" cy="46" r="2.4" fill="rgba(255,255,255,.18)"/><circle cx="220" cy="64" r="2.4" fill="rgba(255,255,255,.18)"/><circle cx="256" cy="28" r="2.4" fill="rgba(255,255,255,.18)"/>
  <path d="M0 182 C54 154 102 162 170 176 C232 188 280 182 340 154 V220 H0 Z" fill="url(#ground-crystal-oracle)"/>
  
    <path d="M119 186 C133 153 153 123 170 123 C187 123 207 153 221 186 Z" fill="#7c3aed"/>
    <circle cx="170" cy="103" r="23" fill="#a78bfa"/>
    <path d="221 186 C249 171 261 181 257 169" fill="none" stroke="#a78bfa" stroke-width="5" stroke-linecap="round"/>
    <circle cx="163" cy="99" r="3" fill="#fff"/>
    <circle cx="179" cy="99" r="3" fill="#fff"/>
</svg>
