<svg xmlns="http://www.w3.org/2000/svg" viewBox="0 0 340 220" role="img" aria-label="Crystal Golem illustration">
  <defs>
    <linearGradient id="sky-crystal-golem" x1="0" y1="0" x2="1" y2="1">
      <stop offset="0%" stop-color="#0a1226"/>
      <stop offset="100%" stop-color="#7c3aed" stop-opacity="0.75"/>
    </linearGradient>
    <linearGradient id="ground-crystal-golem" x1="0" y1="0" x2="1" y2="0">
      <stop offset="0%" stop-color="#a78bfa" stop-opacity="0.22"/>
      <stop offset="100%" stop-color="#0b1020" stop-opacity="0.12"/>
    </linearGradient>
  </defs>
  <rect width="340" height="220" rx="28" fill="url(#sky-crystal-golem)"/>
  <rect x="10" y="10" width="320" height="200" rx="22" fill="none" stroke="rgba(251,191,36,.45)"/>
  <circle cx="40" cy="28" r="2.4" fill="rgba(255,255,255,.18)"/><circle cx="76" cy="46" r="2.4" fill="rgba(255,255,255,.18)"/><circle cx="112" cy="64" r="2.4" fill="rgba(255,255,255,.18)"/><circle cx="148" cy="28" r="2.4" fill="rgba(255,255,255,.18)"/><circle cx="184" cy="46" r="2.4" fill="rgba(255,255,255,.18)"/><circle cx="220" cy="64" r="2.4" fill="rgba(255,255,255,.18)"/><circle cx="256" cy="28" r="2.4" fill="rgba(255,255,255,.18)"/>
  <path d="M0 182 C54 154 102 162 170 176 C232 188 280 182 340 154 V220 H0 Z" fill="url(#ground-crystal-golem)"/>
  
      <path d="M120 196 L148 104 L170 76 L192 104 L220 196 Z" fill="#5b21b6"/>
      <path d="M148 104 L170 76 L192 104 L170 132 Z" fill="#a78bfa" opacity=".6"/>
      <path d="M134 162 L170 132 L206 162" fill="none" stroke="#ddd6fe" stroke-width="4"/>
      <rect x="94" y="192" width="152" height="12" rx="6" fill="#4c1d95"/>
    
</svg>
