<svg xmlns="http://www.w3.org/2000/svg" viewBox="0 0 340 220" role="img" aria-label="Dark Cultist illustration">
  <defs>
    <linearGradient id="sky-dark-cultist" x1="0" y1="0" x2="1" y2="1">
      <stop offset="0%" stop-color="#0a1226"/>
      <stop offset="100%" stop-color="#1e1b4b" stop-opacity="0.75"/>
    </linearGradient>
    <linearGradient id="ground-dark-cultist" x1="0" y1="0" x2="1" y2="0">
      <stop offset="0%" stop-color="#6b21a8" stop-opacity="0.22"/>
      <stop offset="100%" stop-color="#0b1020" stop-opacity="0.12"/>
    </linearGradient>
  </defs>
  <rect width="340" height="220" rx="28" fill="url(#sky-dark-cultist)"/>
  <rect x="10" y="10" width="320" height="200" rx="22" fill="none" stroke="rgba(156,163,175,.45)"/>
  <circle cx="40" cy="28" r="2.4" fill="rgba(255,255,255,.18)"/><circle cx="76" cy="46" r="2.4" fill="rgba(255,255,255,.18)"/><circle cx="112" cy="64" r="2.4" fill="rgba(255,255,255,.18)"/><circle cx="148" cy="28" r="2.4" fill="rgba(255,255,255,.18)"/><circle cx="184" cy="46" r="2.4" fill="rgba(255,255,255,.18)"/><circle cx="220" cy="64" r="2.4" fill="rgba(255,255,255,.18)"/><circle cx="256" cy="28" r="2.4" fill="rgba(255,255,255,.18)"/>
  <path d="M0 182 C54 154 102 162 170 176 C232 188 280 182 340 154 V220 H0 Z" fill="url(#ground-dark-cultist)"/>
  
    <circle cx="170" cy="121" r="47" fill="#1e1b4b" opacity=".4"/>
    <path d="M170 87 C211 87 219 115 213 149 C203 167 193 179 170 179" fill="none" stroke="#6b21a8" stroke-width="9" stroke-linecap="round"/>
    <path d="M170 179 C147 179 137 167 127 149 C121 115 129 87 170 87" fill="none" stroke="#6b21a8" stroke-width="6" stroke-linecap="round" opacity=".5"/>
</svg>
