<svg xmlns="http://www.w3.org/2000/svg" viewBox="0 0 340 220" role="img" aria-label="Druid Elder illustration">
  <defs>
    <linearGradient id="sky-druid-elder" x1="0" y1="0" x2="1" y2="1">
      <stop offset="0%" stop-color="#0a1226"/>
      <stop offset="100%" stop-color="#22c55e" stop-opacity="0.75"/>
    </linearGradient>
    <linearGradient id="ground-druid-elder" x1="0" y1="0" x2="1" y2="0">
      <stop offset="0%" stop-color="#4ade80" stop-opacity="0.22"/>
      <stop offset="100%" stop-color="#0b1020" stop-opacity="0.12"/>
    </linearGradient>
  </defs>
  <rect width="340" height="220" rx="28" fill="url(#sky-druid-elder)"/>
  <rect x="10" y="10" width="320" height="200" rx="22" fill="none" stroke="rgba(59,130,246,.55)"/>
  <circle cx="40" cy="28" r="2.4" fill="rgba(255,255,255,.18)"/><circle cx="76" cy="46" r="2.4" fill="rgba(255,255,255,.18)"/><circle cx="112" cy="64" r="2.4" fill="rgba(255,255,255,.18)"/><circle cx="148" cy="28" r="2.4" fill="rgba(255,255,255,.18)"/><circle cx="184" cy="46" r="2.4" fill="rgba(255,255,255,.18)"/><circle cx="220" cy="64" r="2.4" fill="rgba(255,255,255,.18)"/><circle cx="256" cy="28" r="2.4" fill="rgba(255,255,255,.18)"/>
  <path d="M0 182 C54 154 102 162 170 176 C232 188 280 182 340 154 V220 H0 Z" fill="url(#ground-druid-elder)"/>
  
    <circle cx="170" cy="121" r="49" fill="#22c55e" opacity=".4"/>
    <path d="M170 89 C211 83 215 111 213 151 C203 163 193 179 170 175" fill="none" stroke="#4ade80" stroke-width="9" stroke-linecap="round"/>
    <path d="M170 175 C147 179 137 163 127 151 C125 111 129 83 170 89" fill="none" stroke="#4ade80" stroke-width="6" stroke-linecap="round" opacity=".5"/>
</svg>
