<svg xmlns="http://www.w3.org/2000/svg" viewBox="0 0 340 220" role="img" aria-label="Fire Drake illustration">
  <defs>
    <linearGradient id="sky-fire-drake" x1="0" y1="0" x2="1" y2="1">
      <stop offset="0%" stop-color="#0a1226"/>
      <stop offset="100%" stop-color="#ef4444" stop-opacity="0.75"/>
    </linearGradient>
    <linearGradient id="ground-fire-drake" x1="0" y1="0" x2="1" y2="0">
      <stop offset="0%" stop-color="#fb923c" stop-opacity="0.22"/>
      <stop offset="100%" stop-color="#0b1020" stop-opacity="0.12"/>
    </linearGradient>
  </defs>
  <rect width="340" height="220" rx="28" fill="url(#sky-fire-drake)"/>
  <rect x="10" y="10" width="320" height="200" rx="22" fill="none" stroke="rgba(156,163,175,.45)"/>
  <circle cx="40" cy="28" r="2.4" fill="rgba(255,255,255,.18)"/><circle cx="76" cy="46" r="2.4" fill="rgba(255,255,255,.18)"/><circle cx="112" cy="64" r="2.4" fill="rgba(255,255,255,.18)"/><circle cx="148" cy="28" r="2.4" fill="rgba(255,255,255,.18)"/><circle cx="184" cy="46" r="2.4" fill="rgba(255,255,255,.18)"/><circle cx="220" cy="64" r="2.4" fill="rgba(255,255,255,.18)"/><circle cx="256" cy="28" r="2.4" fill="rgba(255,255,255,.18)"/>
  <path d="M0 182 C54 154 102 162 170 176 C232 188 280 182 340 154 V220 H0 Z" fill="url(#ground-fire-drake)"/>
  
    <path d="M170 72 L222 94 V154 C222 182 196 202 170 212 C144 202 118 182 118 154 V94 Z" fill="#ef4444"/>
    <path d="M170 88 L186 112 L210 116 L186 124 L170 148 L154 124 L130 116 L154 112 Z" fill="#fb923c" opacity=".6"/>
</svg>
