<svg xmlns="http://www.w3.org/2000/svg" viewBox="0 0 340 220" role="img" aria-label="Fire Imp illustration">
  <defs>
    <linearGradient id="sky-fire-imp" x1="0" y1="0" x2="1" y2="1">
      <stop offset="0%" stop-color="#0a1226"/>
      <stop offset="100%" stop-color="#ef4444" stop-opacity="0.75"/>
    </linearGradient>
    <linearGradient id="ground-fire-imp" x1="0" y1="0" x2="1" y2="0">
      <stop offset="0%" stop-color="#fb923c" stop-opacity="0.22"/>
      <stop offset="100%" stop-color="#0b1020" stop-opacity="0.12"/>
    </linearGradient>
  </defs>
  <rect width="340" height="220" rx="28" fill="url(#sky-fire-imp)"/>
  <rect x="10" y="10" width="320" height="200" rx="22" fill="none" stroke="rgba(59,130,246,.55)"/>
  <circle cx="40" cy="28" r="2.4" fill="rgba(255,255,255,.18)"/><circle cx="76" cy="46" r="2.4" fill="rgba(255,255,255,.18)"/><circle cx="112" cy="64" r="2.4" fill="rgba(255,255,255,.18)"/><circle cx="148" cy="28" r="2.4" fill="rgba(255,255,255,.18)"/><circle cx="184" cy="46" r="2.4" fill="rgba(255,255,255,.18)"/><circle cx="220" cy="64" r="2.4" fill="rgba(255,255,255,.18)"/><circle cx="256" cy="28" r="2.4" fill="rgba(255,255,255,.18)"/>
  <path d="M0 182 C54 154 102 162 170 176 C232 188 280 182 340 154 V220 H0 Z" fill="url(#ground-fire-imp)"/>
  
    <path d="M103 186 C127 153 153 121 170 121 C187 121 213 153 237 186 Z" fill="#ef4444"/>
    <circle cx="170" cy="101" r="23" fill="#fb923c"/>
    <path d="237 186 C251 171 261 175 257 169" fill="none" stroke="#fb923c" stroke-width="5" stroke-linecap="round"/>
    <circle cx="163" cy="97" r="3" fill="#fff"/>
    <circle cx="179" cy="97" r="3" fill="#fff"/>
</svg>
