<svg xmlns="http://www.w3.org/2000/svg" viewBox="0 0 340 220" role="img" aria-label="Flame Imp illustration">
  <defs>
    <linearGradient id="sky-flame-imp" x1="0" y1="0" x2="1" y2="1">
      <stop offset="0%" stop-color="#0a1226"/>
      <stop offset="100%" stop-color="#f97316" stop-opacity="0.75"/>
    </linearGradient>
    <linearGradient id="ground-flame-imp" x1="0" y1="0" x2="1" y2="0">
      <stop offset="0%" stop-color="#ef4444" stop-opacity="0.22"/>
      <stop offset="100%" stop-color="#0b1020" stop-opacity="0.12"/>
    </linearGradient>
  </defs>
  <rect width="340" height="220" rx="28" fill="url(#sky-flame-imp)"/>
  <rect x="10" y="10" width="320" height="200" rx="22" fill="none" stroke="rgba(156,163,175,.45)"/>
  <circle cx="40" cy="28" r="2.4" fill="rgba(255,255,255,.18)"/><circle cx="76" cy="46" r="2.4" fill="rgba(255,255,255,.18)"/><circle cx="112" cy="64" r="2.4" fill="rgba(255,255,255,.18)"/><circle cx="148" cy="28" r="2.4" fill="rgba(255,255,255,.18)"/><circle cx="184" cy="46" r="2.4" fill="rgba(255,255,255,.18)"/><circle cx="220" cy="64" r="2.4" fill="rgba(255,255,255,.18)"/><circle cx="256" cy="28" r="2.4" fill="rgba(255,255,255,.18)"/>
  <path d="M0 182 C54 154 102 162 170 176 C232 188 280 182 340 154 V220 H0 Z" fill="url(#ground-flame-imp)"/>
  
    <path d="M102 162 C128 130 154 128 170 128 C186 128 212 130 238 162 C216 162 202 158 170 170 C138 158 124 162 102 162 Z" fill="#f97316" opacity=".75"/>
    <circle cx="170" cy="114" r="24" fill="#ef4444"/>
    <path d="M100 158 L66 118 M240 158 L274 118" stroke="#ef4444" stroke-width="5" stroke-linecap="round" fill="none"/>
</svg>
