<svg xmlns="http://www.w3.org/2000/svg" viewBox="0 0 340 220" role="img" aria-label="Ghost Knight illustration">
  <defs>
    <linearGradient id="sky-ghost-knight" x1="0" y1="0" x2="1" y2="1">
      <stop offset="0%" stop-color="#0a1226"/>
      <stop offset="100%" stop-color="#6b7280" stop-opacity="0.75"/>
    </linearGradient>
    <linearGradient id="ground-ghost-knight" x1="0" y1="0" x2="1" y2="0">
      <stop offset="0%" stop-color="#93c5fd" stop-opacity="0.22"/>
      <stop offset="100%" stop-color="#0b1020" stop-opacity="0.12"/>
    </linearGradient>
  </defs>
  <rect width="340" height="220" rx="28" fill="url(#sky-ghost-knight)"/>
  <rect x="10" y="10" width="320" height="200" rx="22" fill="none" stroke="rgba(59,130,246,.55)"/>
  <circle cx="40" cy="28" r="2.4" fill="rgba(255,255,255,.18)"/><circle cx="76" cy="46" r="2.4" fill="rgba(255,255,255,.18)"/><circle cx="112" cy="64" r="2.4" fill="rgba(255,255,255,.18)"/><circle cx="148" cy="28" r="2.4" fill="rgba(255,255,255,.18)"/><circle cx="184" cy="46" r="2.4" fill="rgba(255,255,255,.18)"/><circle cx="220" cy="64" r="2.4" fill="rgba(255,255,255,.18)"/><circle cx="256" cy="28" r="2.4" fill="rgba(255,255,255,.18)"/>
  <path d="M0 182 C54 154 102 162 170 176 C232 188 280 182 340 154 V220 H0 Z" fill="url(#ground-ghost-knight)"/>
  
    <circle cx="170" cy="119" r="41" fill="#93c5fd" opacity=".35"/>
    <circle cx="170" cy="119" r="21" fill="#6b7280" opacity=".7"/>
    <path d="M170 79 V61 M139 95 L125 79 M201 95 L215 79" stroke="#93c5fd" stroke-width="5" stroke-linecap="round" fill="none"/>
    <path d="M90 194 C130 161 210 161 250 194" fill="#6b7280" opacity=".3"/>
</svg>
