<svg xmlns="http://www.w3.org/2000/svg" viewBox="0 0 340 220" role="img" aria-label="Rimebound Colossus illustration">
  <defs>
    <linearGradient id="sky-glacial-colossus" x1="0" y1="0" x2="0" y2="1">
      <stop offset="0%" stop-color="#08141f"/>
      <stop offset="100%" stop-color="#02050a"/>
    </linearGradient>
    <radialGradient id="drown-glacial-colossus" cx="50%" cy="46%" r="62%">
      <stop offset="0%" stop-color="#4fd8c4" stop-opacity="0.2"/>
      <stop offset="60%" stop-color="#4fd8c4" stop-opacity="0.06"/>
      <stop offset="100%" stop-color="#4fd8c4" stop-opacity="0"/>
    </radialGradient>
    <radialGradient id="vig-glacial-colossus" cx="50%" cy="50%" r="72%">
      <stop offset="0%" stop-color="#000" stop-opacity="0"/>
      <stop offset="76%" stop-color="#000" stop-opacity="0"/>
      <stop offset="100%" stop-color="#000" stop-opacity="0.5"/>
    </radialGradient>
  </defs>
  <rect width="340" height="220" rx="28" fill="url(#sky-glacial-colossus)"/>
  <rect width="340" height="220" rx="28" fill="url(#drown-glacial-colossus)"/>
  <circle cx="31" cy="65" r="1.40" fill="#9ff0e2" opacity="0.17"/><circle cx="34" cy="72" r="1.05" fill="#9ff0e2" opacity="0.22"/><circle cx="37" cy="79" r="0.70" fill="#9ff0e2" opacity="0.27"/><circle cx="40" cy="86" r="1.40" fill="#9ff0e2" opacity="0.12"/><circle cx="43" cy="93" r="1.05" fill="#9ff0e2" opacity="0.17"/><circle cx="46" cy="22" r="0.70" fill="#9ff0e2" opacity="0.22"/><circle cx="49" cy="29" r="1.40" fill="#9ff0e2" opacity="0.27"/><circle cx="52" cy="36" r="1.05" fill="#9ff0e2" opacity="0.12"/><circle cx="55" cy="43" r="0.70" fill="#9ff0e2" opacity="0.17"/>
  
    <circle cx="170" cy="72" r="58" fill="none" stroke="#4fd8c4" stroke-width="2.5" opacity=".38"
      stroke-dasharray="255 110"/>
    <circle cx="170" cy="72" r="51" fill="none" stroke="#9ff0e2" stroke-width="1" opacity=".2"/>
  
  <g fill="#0e313b" opacity=".5">
    <path d="M67 178 L72 108 L97 176 Z"/>
    <path d="M263 178 L286 96 L297 174 Z"/>
    <path d="M303 180 L311 132 L325 178 Z"/>
  </g>
  <g stroke="#4fd8c4" stroke-width="1" opacity=".18" fill="none">
    <path d="M75 150 h12 M271 132 h10 M274 148 h12"/>
  </g>
  <path d="M-4 173 C60 165 130 181 190 173 C250 165 300 181 344 169 V207 H-4 Z" fill="#9ff0e2" opacity="0.05"/>
  
    <ellipse cx="170" cy="182" rx="74" ry="12" fill="none" stroke="#4fd8c4" stroke-width="1.3" opacity=".35"/>
    <ellipse cx="170" cy="128" rx="92" ry="58" fill="none" stroke="#4fd8c4" stroke-width="1" opacity=".18"/>
    <circle cx="86" cy="120" r="2" fill="#4fd8c4" opacity=".5"/>
    <circle cx="254" cy="118" r="2" fill="#4fd8c4" opacity=".5"/>
  
      <path d="M112 192 L124 118 L112 108 L134 96 L140 66 L160 84 L170 54 L182 84 L202 68 L206 98 L228 110 L216 120 L228 192 Z" fill="#22525d"/>
      <path d="M134 96 L140 66 L160 84 L170 54 L182 84 L202 68" fill="none" stroke="#9ff0e2" stroke-width="1.6" opacity=".6"/>
      <path d="M150 128 h40 M144 148 h52 M148 168 h44" stroke="#0e313b" stroke-width="3.4"/>
      <g>
    <circle cx="160" cy="108" r="6.300000000000001" fill="#d7fff6" opacity=".14"/>
    <circle cx="180" cy="108" r="6.300000000000001" fill="#d7fff6" opacity=".14"/>
    <circle cx="160" cy="108" r="3" fill="#d7fff6"/>
    <circle cx="180" cy="108" r="3" fill="#d7fff6"/>
  </g>
      <path d="M124 140 L108 148 M216 138 L232 146" stroke="#9ff0e2" stroke-width="2" opacity=".5"/>
      <path d="M96 192 C100 182 108 176 118 174 M244 192 C240 182 232 176 222 174" fill="none" stroke="#0e313b" stroke-width="4"/>
      <path d="M136 108 L132 124 M204 110 L208 126" stroke="#4fd8c4" stroke-width="1.4" opacity=".5"/>
  <path d="M-4 191 C60 185 130 197 190 191 C250 185 300 197 344 188 V225 H-4 Z" fill="#9ff0e2" opacity="0.07"/>
  
  <path d="M0 196 C60 186 120 194 170 190 C230 185 290 194 340 187 V220 H0 Z" fill="#02050a" opacity=".9"/>
  <path d="M14 220 C15 201 18 197 22 191" stroke="#0e313b" stroke-width="2.2" fill="none" stroke-linecap="round"/><path d="M49 220 C50 200 52 196 55 190" stroke="#0e313b" stroke-width="2.2" fill="none" stroke-linecap="round"/><path d="M84 220 C85 199 86 195 88 189" stroke="#0e313b" stroke-width="2.2" fill="none" stroke-linecap="round"/><path d="M105 220 C106 198 106 194 107 188" stroke="#0e313b" stroke-width="2.2" fill="none" stroke-linecap="round"/><path d="M140 220 C141 197 140 193 140 187" stroke="#0e313b" stroke-width="2.2" fill="none" stroke-linecap="round"/><path d="M175 220 C176 196 174 192 173 186" stroke="#0e313b" stroke-width="2.2" fill="none" stroke-linecap="round"/><path d="M210 220 C211 195 208 191 206 185" stroke="#0e313b" stroke-width="2.2" fill="none" stroke-linecap="round"/><path d="M245 220 C246 194 242 190 239 184" stroke="#0e313b" stroke-width="2.2" fill="none" stroke-linecap="round"/><path d="M266 220 C267 193 262 189 258 183" stroke="#0e313b" stroke-width="2.2" fill="none" stroke-linecap="round"/><path d="M301 220 C302 192 305 188 309 182" stroke="#0e313b" stroke-width="2.2" fill="none" stroke-linecap="round"/><path d="M336 220 C337 191 339 187 342 181" stroke="#0e313b" stroke-width="2.2" fill="none" stroke-linecap="round"/>
  
  <rect width="340" height="220" rx="28" fill="url(#vig-glacial-colossus)"/>
  <circle cx="137" cy="133" r=".6" fill="#9ff0e2" opacity=".05"/><circle cx="304" cy="102" r=".6" fill="#9ff0e2" opacity=".05"/><circle cx="131" cy="71" r=".6" fill="#9ff0e2" opacity=".05"/><circle cx="298" cy="40" r=".6" fill="#9ff0e2" opacity=".05"/><circle cx="125" cy="9" r=".6" fill="#9ff0e2" opacity=".05"/><circle cx="292" cy="198" r=".6" fill="#9ff0e2" opacity=".05"/><circle cx="119" cy="167" r=".6" fill="#9ff0e2" opacity=".05"/><circle cx="286" cy="136" r=".6" fill="#9ff0e2" opacity=".05"/><circle cx="113" cy="105" r=".6" fill="#9ff0e2" opacity=".05"/><circle cx="280" cy="74" r=".6" fill="#9ff0e2" opacity=".05"/><circle cx="107" cy="43" r=".6" fill="#9ff0e2" opacity=".05"/><circle cx="274" cy="12" r=".6" fill="#9ff0e2" opacity=".05"/><circle cx="101" cy="201" r=".6" fill="#9ff0e2" opacity=".05"/><circle cx="268" cy="170" r=".6" fill="#9ff0e2" opacity=".05"/><circle cx="95" cy="139" r=".6" fill="#9ff0e2" opacity=".05"/><circle cx="262" cy="108" r=".6" fill="#9ff0e2" opacity=".05"/><circle cx="89" cy="77" r=".6" fill="#9ff0e2" opacity=".05"/><circle cx="256" cy="46" r=".6" fill="#9ff0e2" opacity=".05"/><circle cx="83" cy="15" r=".6" fill="#9ff0e2" opacity=".05"/><circle cx="250" cy="204" r=".6" fill="#9ff0e2" opacity=".05"/><circle cx="77" cy="173" r=".6" fill="#9ff0e2" opacity=".05"/><circle cx="244" cy="142" r=".6" fill="#9ff0e2" opacity=".05"/><circle cx="71" cy="111" r=".6" fill="#9ff0e2" opacity=".05"/><circle cx="238" cy="80" r=".6" fill="#9ff0e2" opacity=".05"/><circle cx="65" cy="49" r=".6" fill="#9ff0e2" opacity=".05"/><circle cx="232" cy="18" r=".6" fill="#9ff0e2" opacity=".05"/>
  <rect x="10" y="10" width="320" height="200" rx="22" fill="none" stroke="rgba(168,85,247,.55)"/>
</svg>
