<svg xmlns="http://www.w3.org/2000/svg" viewBox="0 0 340 220" role="img" aria-label="Inferno Dragon illustration">
  <defs>
    <linearGradient id="sky-inferno-dragon" x1="0" y1="0" x2="1" y2="1">
      <stop offset="0%" stop-color="#0a1226"/>
      <stop offset="100%" stop-color="#fbbf24" stop-opacity="0.75"/>
    </linearGradient>
    <linearGradient id="ground-inferno-dragon" x1="0" y1="0" x2="1" y2="0">
      <stop offset="0%" stop-color="#ef4444" stop-opacity="0.22"/>
      <stop offset="100%" stop-color="#0b1020" stop-opacity="0.12"/>
    </linearGradient>
  </defs>
  <rect width="340" height="220" rx="28" fill="url(#sky-inferno-dragon)"/>
  <rect x="10" y="10" width="320" height="200" rx="22" fill="none" stroke="rgba(168,85,247,.6)"/>
  <circle cx="40" cy="28" r="2.4" fill="rgba(255,255,255,.18)"/><circle cx="76" cy="46" r="2.4" fill="rgba(255,255,255,.18)"/><circle cx="112" cy="64" r="2.4" fill="rgba(255,255,255,.18)"/><circle cx="148" cy="28" r="2.4" fill="rgba(255,255,255,.18)"/><circle cx="184" cy="46" r="2.4" fill="rgba(255,255,255,.18)"/><circle cx="220" cy="64" r="2.4" fill="rgba(255,255,255,.18)"/><circle cx="256" cy="28" r="2.4" fill="rgba(255,255,255,.18)"/>
  <path d="M0 182 C54 154 102 162 170 176 C232 188 280 182 340 154 V220 H0 Z" fill="url(#ground-inferno-dragon)"/>
  
    <path d="M105 186 C129 143 151 129 170 129 C189 129 211 143 235 186 Z" fill="#fbbf24"/>
    <circle cx="170" cy="109" r="21" fill="#ef4444"/>
    <path d="235 186 C243 177 255 177 267 159" fill="none" stroke="#ef4444" stroke-width="5" stroke-linecap="round"/>
    <circle cx="163" cy="105" r="3" fill="#fff"/>
    <circle cx="177" cy="105" r="3" fill="#fff"/>
</svg>
