<svg xmlns="http://www.w3.org/2000/svg" viewBox="0 0 340 220" role="img" aria-label="Ironbark Guard illustration">
  <defs>
    <linearGradient id="sky-ironbark-guard" x1="0" y1="0" x2="1" y2="1">
      <stop offset="0%" stop-color="#0a1226"/>
      <stop offset="100%" stop-color="#fbbf24" stop-opacity="0.75"/>
    </linearGradient>
    <linearGradient id="ground-ironbark-guard" x1="0" y1="0" x2="1" y2="0">
      <stop offset="0%" stop-color="#22c55e" stop-opacity="0.22"/>
      <stop offset="100%" stop-color="#0b1020" stop-opacity="0.12"/>
    </linearGradient>
  </defs>
  <rect width="340" height="220" rx="28" fill="url(#sky-ironbark-guard)"/>
  <rect x="10" y="10" width="320" height="200" rx="22" fill="none" stroke="rgba(251,191,36,.45)"/>
  <circle cx="40" cy="28" r="2.4" fill="rgba(255,255,255,.18)"/><circle cx="76" cy="46" r="2.4" fill="rgba(255,255,255,.18)"/><circle cx="112" cy="64" r="2.4" fill="rgba(255,255,255,.18)"/><circle cx="148" cy="28" r="2.4" fill="rgba(255,255,255,.18)"/><circle cx="184" cy="46" r="2.4" fill="rgba(255,255,255,.18)"/><circle cx="220" cy="64" r="2.4" fill="rgba(255,255,255,.18)"/><circle cx="256" cy="28" r="2.4" fill="rgba(255,255,255,.18)"/>
  <path d="M0 182 C54 154 102 162 170 176 C232 188 280 182 340 154 V220 H0 Z" fill="url(#ground-ironbark-guard)"/>
  
      <path d="M170 60 L220 88 V138 C220 174 198 204 170 218 C142 204 120 174 120 138 V88 Z" fill="#365314"/>
      <path d="M170 98 L184 126 L214 132 L184 138 L170 166 L156 138 L126 132 L156 126 Z" fill="#fde68a"/>
      <rect x="88" y="186" width="164" height="28" rx="14" fill="#14532d"/>
    
</svg>
