<svg xmlns="http://www.w3.org/2000/svg" viewBox="0 0 340 220" role="img" aria-label="Iron Sentry illustration">
  <defs>
    <linearGradient id="sky-iron-sentry" x1="0" y1="0" x2="1" y2="1">
      <stop offset="0%" stop-color="#0a1226"/>
      <stop offset="100%" stop-color="#6b7280" stop-opacity="0.75"/>
    </linearGradient>
    <linearGradient id="ground-iron-sentry" x1="0" y1="0" x2="1" y2="0">
      <stop offset="0%" stop-color="#9ca3af" stop-opacity="0.22"/>
      <stop offset="100%" stop-color="#0b1020" stop-opacity="0.12"/>
    </linearGradient>
  </defs>
  <rect width="340" height="220" rx="28" fill="url(#sky-iron-sentry)"/>
  <rect x="10" y="10" width="320" height="200" rx="22" fill="none" stroke="rgba(156,163,175,.45)"/>
  <circle cx="40" cy="28" r="2.4" fill="rgba(255,255,255,.18)"/><circle cx="76" cy="46" r="2.4" fill="rgba(255,255,255,.18)"/><circle cx="112" cy="64" r="2.4" fill="rgba(255,255,255,.18)"/><circle cx="148" cy="28" r="2.4" fill="rgba(255,255,255,.18)"/><circle cx="184" cy="46" r="2.4" fill="rgba(255,255,255,.18)"/><circle cx="220" cy="64" r="2.4" fill="rgba(255,255,255,.18)"/><circle cx="256" cy="28" r="2.4" fill="rgba(255,255,255,.18)"/>
  <path d="M0 182 C54 154 102 162 170 176 C232 188 280 182 340 154 V220 H0 Z" fill="url(#ground-iron-sentry)"/>
  
    <circle cx="170" cy="80" r="22" fill="#9ca3af" opacity=".8"/>
    <path d="M110 196 C120 140 154 122 170 122 C186 122 220 140 230 196 Z" fill="#6b7280"/>
    <circle cx="155" cy="76" r="4" fill="#fff"/>
    <circle cx="179" cy="76" r="4" fill="#fff"/>
</svg>
