<svg xmlns="http://www.w3.org/2000/svg" viewBox="0 0 340 220" role="img" aria-label="Iron Guard illustration">
  <defs>
    <linearGradient id="sky-iron-guard" x1="0" y1="0" x2="1" y2="1">
      <stop offset="0%" stop-color="#0a1226"/>
      <stop offset="100%" stop-color="#6b7280" stop-opacity="0.75"/>
    </linearGradient>
    <linearGradient id="ground-iron-guard" x1="0" y1="0" x2="1" y2="0">
      <stop offset="0%" stop-color="#9ca3af" stop-opacity="0.22"/>
      <stop offset="100%" stop-color="#0b1020" stop-opacity="0.12"/>
    </linearGradient>
  </defs>
  <rect width="340" height="220" rx="28" fill="url(#sky-iron-guard)"/>
  <rect x="10" y="10" width="320" height="200" rx="22" fill="none" stroke="rgba(156,163,175,.45)"/>
  <circle cx="40" cy="28" r="2.4" fill="rgba(255,255,255,.18)"/><circle cx="76" cy="46" r="2.4" fill="rgba(255,255,255,.18)"/><circle cx="112" cy="64" r="2.4" fill="rgba(255,255,255,.18)"/><circle cx="148" cy="28" r="2.4" fill="rgba(255,255,255,.18)"/><circle cx="184" cy="46" r="2.4" fill="rgba(255,255,255,.18)"/><circle cx="220" cy="64" r="2.4" fill="rgba(255,255,255,.18)"/><circle cx="256" cy="28" r="2.4" fill="rgba(255,255,255,.18)"/>
  <path d="M0 182 C54 154 102 162 170 176 C232 188 280 182 340 154 V220 H0 Z" fill="url(#ground-iron-guard)"/>
  
    <path d="M170 62 L226 94 V158 C226 188 196 200 170 210 C144 200 114 188 114 158 V94 Z" fill="#6b7280"/>
    <path d="M170 92 L184 112 L210 114 L184 124 L170 154 L156 124 L130 114 L156 112 Z" fill="#9ca3af" opacity=".6"/>
</svg>
