<svg xmlns="http://www.w3.org/2000/svg" viewBox="0 0 340 220" role="img" aria-label="Malachar, Shadow Lord illustration">
  <defs>
    <linearGradient id="sky-malachar" x1="0" y1="0" x2="1" y2="1">
      <stop offset="0%" stop-color="#0a1226"/>
      <stop offset="100%" stop-color="#0f172a" stop-opacity="0.75"/>
    </linearGradient>
    <linearGradient id="ground-malachar" x1="0" y1="0" x2="1" y2="0">
      <stop offset="0%" stop-color="#7c3aed" stop-opacity="0.22"/>
      <stop offset="100%" stop-color="#0b1020" stop-opacity="0.12"/>
    </linearGradient>
  </defs>
  <rect width="340" height="220" rx="28" fill="url(#sky-malachar)"/>
  <rect x="10" y="10" width="320" height="200" rx="22" fill="none" stroke="rgba(245,158,11,.7)"/>
  <circle cx="40" cy="28" r="2.4" fill="rgba(255,255,255,.18)"/><circle cx="76" cy="46" r="2.4" fill="rgba(255,255,255,.18)"/><circle cx="112" cy="64" r="2.4" fill="rgba(255,255,255,.18)"/><circle cx="148" cy="28" r="2.4" fill="rgba(255,255,255,.18)"/><circle cx="184" cy="46" r="2.4" fill="rgba(255,255,255,.18)"/><circle cx="220" cy="64" r="2.4" fill="rgba(255,255,255,.18)"/><circle cx="256" cy="28" r="2.4" fill="rgba(255,255,255,.18)"/>
  <path d="M0 182 C54 154 102 162 170 176 C232 188 280 182 340 154 V220 H0 Z" fill="url(#ground-malachar)"/>
  
    <circle cx="170" cy="123" r="45" fill="#7c3aed" opacity=".35"/>
    <circle cx="170" cy="123" r="19" fill="#0f172a" opacity=".7"/>
    <path d="M170 79 V65 M143 95 L123 77 M197 95 L217 77" stroke="#7c3aed" stroke-width="5" stroke-linecap="round" fill="none"/>
    <path d="M90 194 C130 165 210 165 250 194" fill="#0f172a" opacity=".3"/>
</svg>
