<svg xmlns="http://www.w3.org/2000/svg" viewBox="0 0 340 220" role="img" aria-label="Rune Scholar illustration">
  <defs>
    <linearGradient id="sky-rune-scholar" x1="0" y1="0" x2="1" y2="1">
      <stop offset="0%" stop-color="#0a1226"/>
      <stop offset="100%" stop-color="#a78bfa" stop-opacity="0.75"/>
    </linearGradient>
    <linearGradient id="ground-rune-scholar" x1="0" y1="0" x2="1" y2="0">
      <stop offset="0%" stop-color="#38bdf8" stop-opacity="0.22"/>
      <stop offset="100%" stop-color="#0b1020" stop-opacity="0.12"/>
    </linearGradient>
  </defs>
  <rect width="340" height="220" rx="28" fill="url(#sky-rune-scholar)"/>
  <rect x="10" y="10" width="320" height="200" rx="22" fill="none" stroke="rgba(251,191,36,.45)"/>
  <circle cx="40" cy="28" r="2.4" fill="rgba(255,255,255,.18)"/><circle cx="76" cy="46" r="2.4" fill="rgba(255,255,255,.18)"/><circle cx="112" cy="64" r="2.4" fill="rgba(255,255,255,.18)"/><circle cx="148" cy="28" r="2.4" fill="rgba(255,255,255,.18)"/><circle cx="184" cy="46" r="2.4" fill="rgba(255,255,255,.18)"/><circle cx="220" cy="64" r="2.4" fill="rgba(255,255,255,.18)"/><circle cx="256" cy="28" r="2.4" fill="rgba(255,255,255,.18)"/>
  <path d="M0 182 C54 154 102 162 170 176 C232 188 280 182 340 154 V220 H0 Z" fill="url(#ground-rune-scholar)"/>
  
      <rect x="118" y="118" width="104" height="70" rx="10" fill="#1d4ed8"/>
      <path d="M170 118 V188" stroke="#dbeafe" stroke-width="4"/>
      <path d="M132 136 Q154 124 170 136 Q186 124 208 136" fill="none" stroke="#dbeafe" stroke-width="4"/>
      <circle cx="170" cy="78" r="26" fill="rgba(56,189,248,.28)"/>
    
</svg>
