<svg xmlns="http://www.w3.org/2000/svg" viewBox="0 0 340 220" role="img" aria-label="Runebound Oracle illustration">
  <defs>
    <linearGradient id="sky-runebound-oracle" x1="0" y1="0" x2="1" y2="1">
      <stop offset="0%" stop-color="#0a1226"/>
      <stop offset="100%" stop-color="#06b6d4" stop-opacity="0.75"/>
    </linearGradient>
    <linearGradient id="ground-runebound-oracle" x1="0" y1="0" x2="1" y2="0">
      <stop offset="0%" stop-color="#818cf8" stop-opacity="0.22"/>
      <stop offset="100%" stop-color="#0b1020" stop-opacity="0.12"/>
    </linearGradient>
  </defs>
  <rect width="340" height="220" rx="28" fill="url(#sky-runebound-oracle)"/>
  <rect x="10" y="10" width="320" height="200" rx="22" fill="none" stroke="rgba(251,191,36,.45)"/>
  <circle cx="40" cy="28" r="2.4" fill="rgba(255,255,255,.18)"/><circle cx="76" cy="46" r="2.4" fill="rgba(255,255,255,.18)"/><circle cx="112" cy="64" r="2.4" fill="rgba(255,255,255,.18)"/><circle cx="148" cy="28" r="2.4" fill="rgba(255,255,255,.18)"/><circle cx="184" cy="46" r="2.4" fill="rgba(255,255,255,.18)"/><circle cx="220" cy="64" r="2.4" fill="rgba(255,255,255,.18)"/><circle cx="256" cy="28" r="2.4" fill="rgba(255,255,255,.18)"/>
  <path d="M0 182 C54 154 102 162 170 176 C232 188 280 182 340 154 V220 H0 Z" fill="url(#ground-runebound-oracle)"/>
  
      <circle cx="170" cy="108" r="30" fill="#312e81"/>
      <rect x="118" y="142" width="28" height="38" rx="6" fill="#4338ca" transform="rotate(-12 132 161)"/>
      <rect x="194" y="142" width="28" height="38" rx="6" fill="#4338ca" transform="rotate(12 208 161)"/>
      <rect x="156" y="148" width="28" height="38" rx="6" fill="#6366f1"/>
      <circle cx="170" cy="84" r="14" fill="rgba(6,182,212,.3)"/>
    
</svg>
