<svg xmlns="http://www.w3.org/2000/svg" viewBox="0 0 340 220" role="img" aria-label="Sand Wurm illustration">
  <defs>
    <linearGradient id="sky-sand-wurm" x1="0" y1="0" x2="1" y2="1">
      <stop offset="0%" stop-color="#0a1226"/>
      <stop offset="100%" stop-color="#d97706" stop-opacity="0.75"/>
    </linearGradient>
    <linearGradient id="ground-sand-wurm" x1="0" y1="0" x2="1" y2="0">
      <stop offset="0%" stop-color="#fcd34d" stop-opacity="0.22"/>
      <stop offset="100%" stop-color="#0b1020" stop-opacity="0.12"/>
    </linearGradient>
  </defs>
  <rect width="340" height="220" rx="28" fill="url(#sky-sand-wurm)"/>
  <rect x="10" y="10" width="320" height="200" rx="22" fill="none" stroke="rgba(59,130,246,.55)"/>
  <circle cx="40" cy="28" r="2.4" fill="rgba(255,255,255,.18)"/><circle cx="76" cy="46" r="2.4" fill="rgba(255,255,255,.18)"/><circle cx="112" cy="64" r="2.4" fill="rgba(255,255,255,.18)"/><circle cx="148" cy="28" r="2.4" fill="rgba(255,255,255,.18)"/><circle cx="184" cy="46" r="2.4" fill="rgba(255,255,255,.18)"/><circle cx="220" cy="64" r="2.4" fill="rgba(255,255,255,.18)"/><circle cx="256" cy="28" r="2.4" fill="rgba(255,255,255,.18)"/>
  <path d="M0 182 C54 154 102 162 170 176 C232 188 280 182 340 154 V220 H0 Z" fill="url(#ground-sand-wurm)"/>
  
    <path d="M170 64 L226 90 V158 C226 182 192 202 170 212 C148 202 114 182 114 158 V90 Z" fill="#d97706"/>
    <path d="M170 92 L186 108 L206 116 L186 120 L170 148 L154 120 L134 116 L154 108 Z" fill="#fcd34d" opacity=".6"/>
</svg>
