<svg xmlns="http://www.w3.org/2000/svg" viewBox="0 0 340 220" role="img" aria-label="Sea Serpent illustration">
  <defs>
    <linearGradient id="sky-sea-serpent" x1="0" y1="0" x2="1" y2="1">
      <stop offset="0%" stop-color="#0a1226"/>
      <stop offset="100%" stop-color="#0284c7" stop-opacity="0.75"/>
    </linearGradient>
    <linearGradient id="ground-sea-serpent" x1="0" y1="0" x2="1" y2="0">
      <stop offset="0%" stop-color="#38bdf8" stop-opacity="0.22"/>
      <stop offset="100%" stop-color="#0b1020" stop-opacity="0.12"/>
    </linearGradient>
  </defs>
  <rect width="340" height="220" rx="28" fill="url(#sky-sea-serpent)"/>
  <rect x="10" y="10" width="320" height="200" rx="22" fill="none" stroke="rgba(156,163,175,.45)"/>
  <circle cx="40" cy="28" r="2.4" fill="rgba(255,255,255,.18)"/><circle cx="76" cy="46" r="2.4" fill="rgba(255,255,255,.18)"/><circle cx="112" cy="64" r="2.4" fill="rgba(255,255,255,.18)"/><circle cx="148" cy="28" r="2.4" fill="rgba(255,255,255,.18)"/><circle cx="184" cy="46" r="2.4" fill="rgba(255,255,255,.18)"/><circle cx="220" cy="64" r="2.4" fill="rgba(255,255,255,.18)"/><circle cx="256" cy="28" r="2.4" fill="rgba(255,255,255,.18)"/>
  <path d="M0 182 C54 154 102 162 170 176 C232 188 280 182 340 154 V220 H0 Z" fill="url(#ground-sea-serpent)"/>
  
    <circle cx="170" cy="121" r="45" fill="#0284c7" opacity=".4"/>
    <path d="M170 85 C205 91 223 119 211 147 C203 171 191 177 170 183" fill="none" stroke="#38bdf8" stroke-width="7" stroke-linecap="round"/>
    <path d="M170 183 C149 177 137 171 129 147 C117 119 135 91 170 85" fill="none" stroke="#38bdf8" stroke-width="6" stroke-linecap="round" opacity=".5"/>
</svg>
