<svg xmlns="http://www.w3.org/2000/svg" viewBox="0 0 340 220" role="img" aria-label="Shadow Fiend illustration">
  <defs>
    <linearGradient id="sky-shadow-fiend" x1="0" y1="0" x2="1" y2="1">
      <stop offset="0%" stop-color="#0a1226"/>
      <stop offset="100%" stop-color="#1e1b4b" stop-opacity="0.75"/>
    </linearGradient>
    <linearGradient id="ground-shadow-fiend" x1="0" y1="0" x2="1" y2="0">
      <stop offset="0%" stop-color="#581c87" stop-opacity="0.22"/>
      <stop offset="100%" stop-color="#0b1020" stop-opacity="0.12"/>
    </linearGradient>
  </defs>
  <rect width="340" height="220" rx="28" fill="url(#sky-shadow-fiend)"/>
  <rect x="10" y="10" width="320" height="200" rx="22" fill="none" stroke="rgba(156,163,175,.45)"/>
  <circle cx="40" cy="28" r="2.4" fill="rgba(255,255,255,.18)"/><circle cx="76" cy="46" r="2.4" fill="rgba(255,255,255,.18)"/><circle cx="112" cy="64" r="2.4" fill="rgba(255,255,255,.18)"/><circle cx="148" cy="28" r="2.4" fill="rgba(255,255,255,.18)"/><circle cx="184" cy="46" r="2.4" fill="rgba(255,255,255,.18)"/><circle cx="220" cy="64" r="2.4" fill="rgba(255,255,255,.18)"/><circle cx="256" cy="28" r="2.4" fill="rgba(255,255,255,.18)"/>
  <path d="M0 182 C54 154 102 162 170 176 C232 188 280 182 340 154 V220 H0 Z" fill="url(#ground-shadow-fiend)"/>
  
    <circle cx="170" cy="115" r="41" fill="#1e1b4b" opacity=".4"/>
    <path d="M170 81 C211 85 217 113 209 143 C203 165 189 175 170 177" fill="none" stroke="#581c87" stroke-width="9" stroke-linecap="round"/>
    <path d="M170 177 C151 175 137 165 131 143 C123 113 129 85 170 81" fill="none" stroke="#581c87" stroke-width="6" stroke-linecap="round" opacity=".5"/>
</svg>
