<svg xmlns="http://www.w3.org/2000/svg" viewBox="0 0 340 220" role="img" aria-label="Shadow Assassin illustration">
  <defs>
    <linearGradient id="sky-shadow-assassin" x1="0" y1="0" x2="1" y2="1">
      <stop offset="0%" stop-color="#0a1226"/>
      <stop offset="100%" stop-color="#1e1b4b" stop-opacity="0.75"/>
    </linearGradient>
    <linearGradient id="ground-shadow-assassin" x1="0" y1="0" x2="1" y2="0">
      <stop offset="0%" stop-color="#581c87" stop-opacity="0.22"/>
      <stop offset="100%" stop-color="#0b1020" stop-opacity="0.12"/>
    </linearGradient>
  </defs>
  <rect width="340" height="220" rx="28" fill="url(#sky-shadow-assassin)"/>
  <rect x="10" y="10" width="320" height="200" rx="22" fill="none" stroke="rgba(59,130,246,.55)"/>
  <circle cx="40" cy="28" r="2.4" fill="rgba(255,255,255,.18)"/><circle cx="76" cy="46" r="2.4" fill="rgba(255,255,255,.18)"/><circle cx="112" cy="64" r="2.4" fill="rgba(255,255,255,.18)"/><circle cx="148" cy="28" r="2.4" fill="rgba(255,255,255,.18)"/><circle cx="184" cy="46" r="2.4" fill="rgba(255,255,255,.18)"/><circle cx="220" cy="64" r="2.4" fill="rgba(255,255,255,.18)"/><circle cx="256" cy="28" r="2.4" fill="rgba(255,255,255,.18)"/>
  <path d="M0 182 C54 154 102 162 170 176 C232 188 280 182 340 154 V220 H0 Z" fill="url(#ground-shadow-assassin)"/>
  
    <path d="M170 76 L224 94 V156 C224 182 196 206 170 216 C144 206 116 182 116 156 V94 Z" fill="#1e1b4b"/>
    <path d="M170 90 L190 112 L210 120 L190 124 L170 148 L150 124 L130 120 L150 112 Z" fill="#581c87" opacity=".6"/>
</svg>
