<svg xmlns="http://www.w3.org/2000/svg" viewBox="0 0 340 220" role="img" aria-label="Sky Raider illustration">
  <defs>
    <linearGradient id="sky-sky-raider" x1="0" y1="0" x2="1" y2="1">
      <stop offset="0%" stop-color="#0a1226"/>
      <stop offset="100%" stop-color="#06b6d4" stop-opacity="0.75"/>
    </linearGradient>
    <linearGradient id="ground-sky-raider" x1="0" y1="0" x2="1" y2="0">
      <stop offset="0%" stop-color="#60a5fa" stop-opacity="0.22"/>
      <stop offset="100%" stop-color="#0b1020" stop-opacity="0.12"/>
    </linearGradient>
  </defs>
  <rect width="340" height="220" rx="28" fill="url(#sky-sky-raider)"/>
  <rect x="10" y="10" width="320" height="200" rx="22" fill="none" stroke="rgba(251,191,36,.45)"/>
  <circle cx="40" cy="28" r="2.4" fill="rgba(255,255,255,.18)"/><circle cx="76" cy="46" r="2.4" fill="rgba(255,255,255,.18)"/><circle cx="112" cy="64" r="2.4" fill="rgba(255,255,255,.18)"/><circle cx="148" cy="28" r="2.4" fill="rgba(255,255,255,.18)"/><circle cx="184" cy="46" r="2.4" fill="rgba(255,255,255,.18)"/><circle cx="220" cy="64" r="2.4" fill="rgba(255,255,255,.18)"/><circle cx="256" cy="28" r="2.4" fill="rgba(255,255,255,.18)"/>
  <path d="M0 182 C54 154 102 162 170 176 C232 188 280 182 340 154 V220 H0 Z" fill="url(#ground-sky-raider)"/>
  
      <path d="M92 164 C132 132 148 126 170 132 C190 126 208 132 248 164 C214 160 196 164 170 178 C144 164 126 160 92 164 Z" fill="#dbeafe" opacity=".85"/>
      <circle cx="170" cy="120" r="16" fill="#38bdf8"/>
      <path d="M62 198 H278" stroke="rgba(255,255,255,.2)" stroke-width="8" stroke-linecap="round"/>
    
</svg>
