<svg xmlns="http://www.w3.org/2000/svg" viewBox="0 0 340 220" role="img" aria-label="Soul Reaver illustration">
  <defs>
    <linearGradient id="sky-soul-reaver" x1="0" y1="0" x2="1" y2="1">
      <stop offset="0%" stop-color="#0a1226"/>
      <stop offset="100%" stop-color="#f43f5e" stop-opacity="0.75"/>
    </linearGradient>
    <linearGradient id="ground-soul-reaver" x1="0" y1="0" x2="1" y2="0">
      <stop offset="0%" stop-color="#6b21a8" stop-opacity="0.22"/>
      <stop offset="100%" stop-color="#0b1020" stop-opacity="0.12"/>
    </linearGradient>
  </defs>
  <rect width="340" height="220" rx="28" fill="url(#sky-soul-reaver)"/>
  <rect x="10" y="10" width="320" height="200" rx="22" fill="none" stroke="rgba(251,191,36,.45)"/>
  <circle cx="40" cy="28" r="2.4" fill="rgba(255,255,255,.18)"/><circle cx="76" cy="46" r="2.4" fill="rgba(255,255,255,.18)"/><circle cx="112" cy="64" r="2.4" fill="rgba(255,255,255,.18)"/><circle cx="148" cy="28" r="2.4" fill="rgba(255,255,255,.18)"/><circle cx="184" cy="46" r="2.4" fill="rgba(255,255,255,.18)"/><circle cx="220" cy="64" r="2.4" fill="rgba(255,255,255,.18)"/><circle cx="256" cy="28" r="2.4" fill="rgba(255,255,255,.18)"/>
  <path d="M0 182 C54 154 102 162 170 176 C232 188 280 182 340 154 V220 H0 Z" fill="url(#ground-soul-reaver)"/>
  
      <path d="M110 194 C120 148 146 122 170 122 C194 122 220 148 230 194 Z" fill="#3b0764"/>
      <circle cx="170" cy="100" r="22" fill="#6b21a8"/>
      <path d="M126 168 C136 144 150 148 152 172" fill="none" stroke="rgba(248,113,113,.5)" stroke-width="4"/>
      <path d="M192 168 C202 144 216 148 218 172" fill="none" stroke="rgba(248,113,113,.5)" stroke-width="4"/>
      <circle cx="162" cy="96" r="4" fill="#f87171"/>
      <circle cx="178" cy="96" r="4" fill="#f87171"/>
    
</svg>
