<svg xmlns="http://www.w3.org/2000/svg" viewBox="0 0 340 220" role="img" aria-label="Storm Brute illustration">
  <defs>
    <linearGradient id="sky-storm-brute" x1="0" y1="0" x2="1" y2="1">
      <stop offset="0%" stop-color="#0a1226"/>
      <stop offset="100%" stop-color="#38bdf8" stop-opacity="0.75"/>
    </linearGradient>
    <linearGradient id="ground-storm-brute" x1="0" y1="0" x2="1" y2="0">
      <stop offset="0%" stop-color="#64748b" stop-opacity="0.22"/>
      <stop offset="100%" stop-color="#0b1020" stop-opacity="0.12"/>
    </linearGradient>
  </defs>
  <rect width="340" height="220" rx="28" fill="url(#sky-storm-brute)"/>
  <rect x="10" y="10" width="320" height="200" rx="22" fill="none" stroke="rgba(251,191,36,.45)"/>
  <circle cx="40" cy="28" r="2.4" fill="rgba(255,255,255,.18)"/><circle cx="76" cy="46" r="2.4" fill="rgba(255,255,255,.18)"/><circle cx="112" cy="64" r="2.4" fill="rgba(255,255,255,.18)"/><circle cx="148" cy="28" r="2.4" fill="rgba(255,255,255,.18)"/><circle cx="184" cy="46" r="2.4" fill="rgba(255,255,255,.18)"/><circle cx="220" cy="64" r="2.4" fill="rgba(255,255,255,.18)"/><circle cx="256" cy="28" r="2.4" fill="rgba(255,255,255,.18)"/>
  <path d="M0 182 C54 154 102 162 170 176 C232 188 280 182 340 154 V220 H0 Z" fill="url(#ground-storm-brute)"/>
  
      <path d="M104 194 C110 144 136 120 170 120 C204 120 230 144 236 194 Z" fill="#475569"/>
      <circle cx="170" cy="96" r="24" fill="#64748b"/>
      <path d="M122 74 L148 98 L134 98 L154 126" fill="none" stroke="#e0f2fe" stroke-width="8" stroke-linecap="round"/>
    
</svg>
