<svg xmlns="http://www.w3.org/2000/svg" viewBox="0 0 340 220" role="img" aria-label="Thorn Bush illustration">
  <defs>
    <linearGradient id="sky-thorn-bush" x1="0" y1="0" x2="1" y2="1">
      <stop offset="0%" stop-color="#0a1226"/>
      <stop offset="100%" stop-color="#854d0e" stop-opacity="0.75"/>
    </linearGradient>
    <linearGradient id="ground-thorn-bush" x1="0" y1="0" x2="1" y2="0">
      <stop offset="0%" stop-color="#22c55e" stop-opacity="0.22"/>
      <stop offset="100%" stop-color="#0b1020" stop-opacity="0.12"/>
    </linearGradient>
  </defs>
  <rect width="340" height="220" rx="28" fill="url(#sky-thorn-bush)"/>
  <rect x="10" y="10" width="320" height="200" rx="22" fill="none" stroke="rgba(156,163,175,.45)"/>
  <circle cx="40" cy="28" r="2.4" fill="rgba(255,255,255,.18)"/><circle cx="76" cy="46" r="2.4" fill="rgba(255,255,255,.18)"/><circle cx="112" cy="64" r="2.4" fill="rgba(255,255,255,.18)"/><circle cx="148" cy="28" r="2.4" fill="rgba(255,255,255,.18)"/><circle cx="184" cy="46" r="2.4" fill="rgba(255,255,255,.18)"/><circle cx="220" cy="64" r="2.4" fill="rgba(255,255,255,.18)"/><circle cx="256" cy="28" r="2.4" fill="rgba(255,255,255,.18)"/>
  <path d="M0 182 C54 154 102 162 170 176 C232 188 280 182 340 154 V220 H0 Z" fill="url(#ground-thorn-bush)"/>
  
    <path d="M102 170 C134 138 154 128 170 128 C186 128 206 138 238 170 C210 162 202 164 170 176 C138 164 130 162 102 170 Z" fill="#854d0e" opacity=".75"/>
    <circle cx="170" cy="114" r="24" fill="#22c55e"/>
    <path d="M100 158 L74 114 M240 158 L266 114" stroke="#22c55e" stroke-width="5" stroke-linecap="round" fill="none"/>
</svg>
