<svg xmlns="http://www.w3.org/2000/svg" viewBox="0 0 340 220" role="img" aria-label="Thunder Titan illustration">
  <defs>
    <linearGradient id="sky-thunder-titan" x1="0" y1="0" x2="1" y2="1">
      <stop offset="0%" stop-color="#0a1226"/>
      <stop offset="100%" stop-color="#3b82f6" stop-opacity="0.75"/>
    </linearGradient>
    <linearGradient id="ground-thunder-titan" x1="0" y1="0" x2="1" y2="0">
      <stop offset="0%" stop-color="#fbbf24" stop-opacity="0.22"/>
      <stop offset="100%" stop-color="#0b1020" stop-opacity="0.12"/>
    </linearGradient>
  </defs>
  <rect width="340" height="220" rx="28" fill="url(#sky-thunder-titan)"/>
  <rect x="10" y="10" width="320" height="200" rx="22" fill="none" stroke="rgba(168,85,247,.6)"/>
  <circle cx="40" cy="28" r="2.4" fill="rgba(255,255,255,.18)"/><circle cx="76" cy="46" r="2.4" fill="rgba(255,255,255,.18)"/><circle cx="112" cy="64" r="2.4" fill="rgba(255,255,255,.18)"/><circle cx="148" cy="28" r="2.4" fill="rgba(255,255,255,.18)"/><circle cx="184" cy="46" r="2.4" fill="rgba(255,255,255,.18)"/><circle cx="220" cy="64" r="2.4" fill="rgba(255,255,255,.18)"/><circle cx="256" cy="28" r="2.4" fill="rgba(255,255,255,.18)"/>
  <path d="M0 182 C54 154 102 162 170 176 C232 188 280 182 340 154 V220 H0 Z" fill="url(#ground-thunder-titan)"/>
  
    <path d="M115 186 C129 145 153 127 170 127 C187 127 211 145 225 186 Z" fill="#3b82f6"/>
    <circle cx="170" cy="107" r="23" fill="#fbbf24"/>
    <path d="225 186 C245 171 261 177 265 161" fill="none" stroke="#fbbf24" stroke-width="5" stroke-linecap="round"/>
    <circle cx="163" cy="103" r="3" fill="#fff"/>
    <circle cx="179" cy="103" r="3" fill="#fff"/>
</svg>
