<svg xmlns="http://www.w3.org/2000/svg" viewBox="0 0 340 220" role="img" aria-label="Thunder Wolf illustration">
  <defs>
    <linearGradient id="sky-thunder-wolf" x1="0" y1="0" x2="1" y2="1">
      <stop offset="0%" stop-color="#0a1226"/>
      <stop offset="100%" stop-color="#3b82f6" stop-opacity="0.75"/>
    </linearGradient>
    <linearGradient id="ground-thunder-wolf" x1="0" y1="0" x2="1" y2="0">
      <stop offset="0%" stop-color="#fbbf24" stop-opacity="0.22"/>
      <stop offset="100%" stop-color="#0b1020" stop-opacity="0.12"/>
    </linearGradient>
  </defs>
  <rect width="340" height="220" rx="28" fill="url(#sky-thunder-wolf)"/>
  <rect x="10" y="10" width="320" height="200" rx="22" fill="none" stroke="rgba(59,130,246,.55)"/>
  <circle cx="40" cy="28" r="2.4" fill="rgba(255,255,255,.18)"/><circle cx="76" cy="46" r="2.4" fill="rgba(255,255,255,.18)"/><circle cx="112" cy="64" r="2.4" fill="rgba(255,255,255,.18)"/><circle cx="148" cy="28" r="2.4" fill="rgba(255,255,255,.18)"/><circle cx="184" cy="46" r="2.4" fill="rgba(255,255,255,.18)"/><circle cx="220" cy="64" r="2.4" fill="rgba(255,255,255,.18)"/><circle cx="256" cy="28" r="2.4" fill="rgba(255,255,255,.18)"/>
  <path d="M0 182 C54 154 102 162 170 176 C232 188 280 182 340 154 V220 H0 Z" fill="url(#ground-thunder-wolf)"/>
  
    <circle cx="170" cy="113" r="35" fill="#fbbf24" opacity=".35"/>
    <circle cx="170" cy="113" r="21" fill="#3b82f6" opacity=".7"/>
    <path d="M170 73 V63 M141 89 L125 79 M199 89 L215 79" stroke="#fbbf24" stroke-width="5" stroke-linecap="round" fill="none"/>
    <path d="M90 194 C130 155 210 155 250 194" fill="#3b82f6" opacity=".3"/>
</svg>
