<svg xmlns="http://www.w3.org/2000/svg" viewBox="0 0 340 220" role="img" aria-label="Tide Caller illustration">
  <defs>
    <linearGradient id="sky-tide-caller" x1="0" y1="0" x2="1" y2="1">
      <stop offset="0%" stop-color="#0a1226"/>
      <stop offset="100%" stop-color="#1e40af" stop-opacity="0.75"/>
    </linearGradient>
    <linearGradient id="ground-tide-caller" x1="0" y1="0" x2="1" y2="0">
      <stop offset="0%" stop-color="#06b6d4" stop-opacity="0.22"/>
      <stop offset="100%" stop-color="#0b1020" stop-opacity="0.12"/>
    </linearGradient>
  </defs>
  <rect width="340" height="220" rx="28" fill="url(#sky-tide-caller)"/>
  <rect x="10" y="10" width="320" height="200" rx="22" fill="none" stroke="rgba(251,191,36,.45)"/>
  <circle cx="40" cy="28" r="2.4" fill="rgba(255,255,255,.18)"/><circle cx="76" cy="46" r="2.4" fill="rgba(255,255,255,.18)"/><circle cx="112" cy="64" r="2.4" fill="rgba(255,255,255,.18)"/><circle cx="148" cy="28" r="2.4" fill="rgba(255,255,255,.18)"/><circle cx="184" cy="46" r="2.4" fill="rgba(255,255,255,.18)"/><circle cx="220" cy="64" r="2.4" fill="rgba(255,255,255,.18)"/><circle cx="256" cy="28" r="2.4" fill="rgba(255,255,255,.18)"/>
  <path d="M0 182 C54 154 102 162 170 176 C232 188 280 182 340 154 V220 H0 Z" fill="url(#ground-tide-caller)"/>
  
      <circle cx="170" cy="78" r="24" fill="rgba(6,182,212,.3)"/>
      <path d="M60 168 C100 148 140 158 170 148 C200 158 240 148 280 168 V210 H60 Z" fill="#0e7490" opacity=".7"/>
      <path d="M80 178 C110 162 150 172 170 162 C190 172 230 162 260 178" fill="none" stroke="#67e8f9" stroke-width="6" stroke-linecap="round"/>
      <circle cx="170" cy="128" r="14" fill="#155e75"/>
    
</svg>
