<svg xmlns="http://www.w3.org/2000/svg" viewBox="0 0 340 220" role="img" aria-label="Venom Drake illustration">
  <defs>
    <linearGradient id="sky-venom-drake" x1="0" y1="0" x2="1" y2="1">
      <stop offset="0%" stop-color="#0a1226"/>
      <stop offset="100%" stop-color="#14532d" stop-opacity="0.75"/>
    </linearGradient>
    <linearGradient id="ground-venom-drake" x1="0" y1="0" x2="1" y2="0">
      <stop offset="0%" stop-color="#22c55e" stop-opacity="0.22"/>
      <stop offset="100%" stop-color="#0b1020" stop-opacity="0.12"/>
    </linearGradient>
  </defs>
  <rect width="340" height="220" rx="28" fill="url(#sky-venom-drake)"/>
  <rect x="10" y="10" width="320" height="200" rx="22" fill="none" stroke="rgba(251,191,36,.45)"/>
  <circle cx="40" cy="28" r="2.4" fill="rgba(255,255,255,.18)"/><circle cx="76" cy="46" r="2.4" fill="rgba(255,255,255,.18)"/><circle cx="112" cy="64" r="2.4" fill="rgba(255,255,255,.18)"/><circle cx="148" cy="28" r="2.4" fill="rgba(255,255,255,.18)"/><circle cx="184" cy="46" r="2.4" fill="rgba(255,255,255,.18)"/><circle cx="220" cy="64" r="2.4" fill="rgba(255,255,255,.18)"/><circle cx="256" cy="28" r="2.4" fill="rgba(255,255,255,.18)"/>
  <path d="M0 182 C54 154 102 162 170 176 C232 188 280 182 340 154 V220 H0 Z" fill="url(#ground-venom-drake)"/>
  
      <path d="M100 188 C120 140 150 116 170 116 C190 116 220 140 240 188 Z" fill="#14532d"/>
      <circle cx="170" cy="96" r="24" fill="#166534"/>
      <path d="M136 90 L154 104 M186 104 L204 90" fill="none" stroke="#4ade80" stroke-width="6" stroke-linecap="round"/>
      <path d="M148 128 C160 142 180 142 192 128" fill="none" stroke="#bbf7d0" stroke-width="4"/>
      <circle cx="130" cy="158" r="8" fill="rgba(74,222,128,.3)"/>
      <circle cx="214" cy="148" r="6" fill="rgba(74,222,128,.25)"/>
    
</svg>
