<svg xmlns="http://www.w3.org/2000/svg" viewBox="0 0 340 220" role="img" aria-label="Void Leech illustration">
  <defs>
    <linearGradient id="sky-void-leech" x1="0" y1="0" x2="1" y2="1">
      <stop offset="0%" stop-color="#0a1226"/>
      <stop offset="100%" stop-color="#7c3aed" stop-opacity="0.75"/>
    </linearGradient>
    <linearGradient id="ground-void-leech" x1="0" y1="0" x2="1" y2="0">
      <stop offset="0%" stop-color="#dc2626" stop-opacity="0.22"/>
      <stop offset="100%" stop-color="#0b1020" stop-opacity="0.12"/>
    </linearGradient>
  </defs>
  <rect width="340" height="220" rx="28" fill="url(#sky-void-leech)"/>
  <rect x="10" y="10" width="320" height="200" rx="22" fill="none" stroke="rgba(251,191,36,.45)"/>
  <circle cx="40" cy="28" r="2.4" fill="rgba(255,255,255,.18)"/><circle cx="76" cy="46" r="2.4" fill="rgba(255,255,255,.18)"/><circle cx="112" cy="64" r="2.4" fill="rgba(255,255,255,.18)"/><circle cx="148" cy="28" r="2.4" fill="rgba(255,255,255,.18)"/><circle cx="184" cy="46" r="2.4" fill="rgba(255,255,255,.18)"/><circle cx="220" cy="64" r="2.4" fill="rgba(255,255,255,.18)"/><circle cx="256" cy="28" r="2.4" fill="rgba(255,255,255,.18)"/>
  <path d="M0 182 C54 154 102 162 170 176 C232 188 280 182 340 154 V220 H0 Z" fill="url(#ground-void-leech)"/>
  
      <ellipse cx="170" cy="148" rx="60" ry="36" fill="#3b0764"/>
      <circle cx="170" cy="108" r="28" fill="#7c3aed" opacity=".7"/>
      <path d="M142 108 C142 88 198 88 198 108" fill="none" stroke="#f87171" stroke-width="8" stroke-linecap="round"/>
      <circle cx="156" cy="102" r="5" fill="#fca5a5"/>
      <circle cx="184" cy="102" r="5" fill="#fca5a5"/>
    
</svg>
