<svg xmlns="http://www.w3.org/2000/svg" viewBox="0 0 340 220" role="img" aria-label="Warcry Sentinel illustration">
  <defs>
    <linearGradient id="sky-warcry-sentinel" x1="0" y1="0" x2="1" y2="1">
      <stop offset="0%" stop-color="#0a1226"/>
      <stop offset="100%" stop-color="#dc2626" stop-opacity="0.75"/>
    </linearGradient>
    <linearGradient id="ground-warcry-sentinel" x1="0" y1="0" x2="1" y2="0">
      <stop offset="0%" stop-color="#f59e0b" stop-opacity="0.22"/>
      <stop offset="100%" stop-color="#0b1020" stop-opacity="0.12"/>
    </linearGradient>
  </defs>
  <rect width="340" height="220" rx="28" fill="url(#sky-warcry-sentinel)"/>
  <rect x="10" y="10" width="320" height="200" rx="22" fill="none" stroke="rgba(251,191,36,.45)"/>
  <circle cx="40" cy="28" r="2.4" fill="rgba(255,255,255,.18)"/><circle cx="76" cy="46" r="2.4" fill="rgba(255,255,255,.18)"/><circle cx="112" cy="64" r="2.4" fill="rgba(255,255,255,.18)"/><circle cx="148" cy="28" r="2.4" fill="rgba(255,255,255,.18)"/><circle cx="184" cy="46" r="2.4" fill="rgba(255,255,255,.18)"/><circle cx="220" cy="64" r="2.4" fill="rgba(255,255,255,.18)"/><circle cx="256" cy="28" r="2.4" fill="rgba(255,255,255,.18)"/>
  <path d="M0 182 C54 154 102 162 170 176 C232 188 280 182 340 154 V220 H0 Z" fill="url(#ground-warcry-sentinel)"/>
  
      <path d="M120 196 C128 146 150 122 170 122 C190 122 212 146 220 196 Z" fill="#92400e"/>
      <circle cx="170" cy="98" r="22" fill="#b45309"/>
      <path d="M198 118 L248 132 L246 142 L196 136" fill="#fbbf24"/>
      <rect x="86" y="188" width="168" height="12" rx="6" fill="#78350f"/>
    
</svg>
