<svg xmlns="http://www.w3.org/2000/svg" viewBox="0 0 340 220" role="img" aria-label="Zephyr, the Gale Sovereign illustration">
  <defs>
    <linearGradient id="sky-zephyr" x1="0" y1="0" x2="1" y2="1">
      <stop offset="0%" stop-color="#0a1226"/>
      <stop offset="100%" stop-color="#a5f3fc" stop-opacity="0.75"/>
    </linearGradient>
    <linearGradient id="ground-zephyr" x1="0" y1="0" x2="1" y2="0">
      <stop offset="0%" stop-color="#67e8f9" stop-opacity="0.22"/>
      <stop offset="100%" stop-color="#0b1020" stop-opacity="0.12"/>
    </linearGradient>
  </defs>
  <rect width="340" height="220" rx="28" fill="url(#sky-zephyr)"/>
  <rect x="10" y="10" width="320" height="200" rx="22" fill="none" stroke="rgba(245,158,11,.7)"/>
  <circle cx="40" cy="28" r="2.4" fill="rgba(255,255,255,.18)"/><circle cx="76" cy="46" r="2.4" fill="rgba(255,255,255,.18)"/><circle cx="112" cy="64" r="2.4" fill="rgba(255,255,255,.18)"/><circle cx="148" cy="28" r="2.4" fill="rgba(255,255,255,.18)"/><circle cx="184" cy="46" r="2.4" fill="rgba(255,255,255,.18)"/><circle cx="220" cy="64" r="2.4" fill="rgba(255,255,255,.18)"/><circle cx="256" cy="28" r="2.4" fill="rgba(255,255,255,.18)"/>
  <path d="M0 182 C54 154 102 162 170 176 C232 188 280 182 340 154 V220 H0 Z" fill="url(#ground-zephyr)"/>
  
    <path d="M170 66 L222 92 V154 C222 188 194 204 170 214 C146 204 118 188 118 154 V92 Z" fill="#a5f3fc"/>
    <path d="M170 88 L188 110 L208 118 L188 122 L170 154 L152 122 L132 118 L152 110 Z" fill="#67e8f9" opacity=".6"/>
</svg>
